<svg width="211" height="44" viewBox="0 0 211 44" fill="none" xmlns="http://www.w3.org/2000/svg">
<path d="M60.2109 24.4531H69.9375V25.4688H67.0078V35L63.6875 33.7891C63.5573 33.8932 63.388 33.9974 63.1797 34.1016C61.5911 34.9609 59.8203 35.3906 57.8672 35.3906C55.1849 35.3906 52.763 34.5573 50.6016 32.8906C47.6328 30.5469 46.1484 27.2917 46.1484 23.125C46.1484 19.4792 47.3724 16.5234 49.8203 14.2578C52.0599 12.2005 54.7422 11.1719 57.8672 11.1719C59.7161 11.1719 61.4609 11.5755 63.1016 12.3828L66.5 11.6797L66.6953 19.2578H65.6797C65.0547 17.0964 64.3516 15.5078 63.5703 14.4922C62.3724 13.0078 60.4323 12.2656 57.75 12.2656C57.0208 12.2656 56.3307 12.3438 55.6797 12.5C51.9297 13.4896 50.0547 17.0833 50.0547 23.2812C50.0807 30.5208 52.6849 34.1667 57.8672 34.2188C58.0755 34.2188 58.2839 34.2057 58.4922 34.1797C60.6797 33.9974 62.4245 33.125 63.7266 31.5625V25.4688H60.2109V24.4531ZM90.875 18.5938H90.0938L89.5469 16.7578C89.5208 16.6536 89.4818 16.5234 89.4297 16.3672C88.6224 13.8411 87.2812 12.5781 85.4062 12.5781H79.1562V22.3438H87.2031V23.4766H79.1562V33.9844H85.4062C85.849 33.9844 86.2656 33.9193 86.6562 33.7891C87.9323 33.3464 88.8958 32.0182 89.5469 29.8047L90.0938 27.9688H90.875L90.6797 35H72.6719V33.9844H75.7969V12.5781H72.6719V11.5625H90.6797L90.875 18.5938ZM110.562 12.5781V11.5625H118.57V12.5781H115.445V34.8047L113.648 35.1953L98.2969 15.8984V33.9844H100.602C100.732 33.9844 100.862 33.9974 100.992 34.0234C101.409 34.1016 101.617 34.4271 101.617 35H93.6094V33.9844H96.7344V12.5781H93.6094V11.5625H99.0391L113.883 30.0781V12.5781H110.562ZM120.523 11.5625H131.422C134.078 11.5625 136.409 12.1875 138.414 13.4375C141.695 15.5208 143.336 18.8021 143.336 23.2812C143.336 26.7448 142.216 29.5573 139.977 31.7188C137.711 33.9062 134.82 35 131.305 35H120.523V33.9844H123.648V12.5781H120.523V11.5625ZM131.305 12.5781H127.008V33.9844H131.422C131.943 33.9844 132.451 33.9453 132.945 33.8672C137.372 33.1901 139.586 29.6094 139.586 23.125C139.586 21.224 139.391 19.5833 139 18.2031C137.984 14.4531 135.419 12.5781 131.305 12.5781ZM156.617 35H147.047V33.9844H150.172V12.5781H147.047V11.5625H156.617V12.5781H153.531V33.9844H155.602C155.732 33.9844 155.862 33.9974 155.992 34.0234C156.409 34.1016 156.617 34.4271 156.617 35ZM178.414 35H159.156V34.2188L174.547 12.5781H166.031C164.703 12.6042 163.648 13.4505 162.867 15.1172L161.344 18.6328H160.562L160.914 11.5625H178.297V12.3828L163.336 33.9844H172.984C174.99 33.9583 176.266 32.8516 176.812 30.6641L177.633 26.9141H178.492L178.414 35ZM199.43 18.5938H198.648L198.102 16.7578C198.076 16.6536 198.036 16.5234 197.984 16.3672C197.177 13.8411 195.836 12.5781 193.961 12.5781H187.711V22.3438H195.758V23.4766H187.711V33.9844H193.961C194.404 33.9844 194.82 33.9193 195.211 33.7891C196.487 33.3464 197.451 32.0182 198.102 29.8047L198.648 27.9688H199.43L199.234 35H181.227V33.9844H184.352V12.5781H181.227V11.5625H199.234L199.43 18.5938Z" fill="#22A448"/>
<rect x="0.706999" y="21.5468" width="30" height="30" rx="3.5" transform="rotate(-44 0.706999 21.5468)" stroke="#22A448"/>
<rect x="9.51514" y="22.2527" width="17.6385" height="17.6385" rx="8" transform="rotate(-44 9.51514 22.2527)" fill="#22A448"/>
<rect x="5.81003" y="21.8092" width="22.7721" height="22.7721" rx="7.5" transform="rotate(-44 5.81003 21.8092)" stroke="#22A448"/>
</svg>
