<svg width="571" height="418" viewBox="0 0 571 418" fill="none" xmlns="http://www.w3.org/2000/svg">
<g clip-path="url(#clip0_97_24)">
<path d="M439.156 -32.6241C441.349 -30.5228 447.561 -28.3416 448.052 -28.1703C446.798 -24.6339 445.783 -21.017 445.015 -17.3442C444.546 -15.2086 444.147 -13.0274 443.77 -10.8462C443.77 -11.8626 443.77 -12.7876 443.77 -12.9132C443.439 -16.4991 440.686 -23.1912 436.735 -24.1162C436.074 -24.249 435.391 -24.2404 434.734 -24.0909C434.076 -23.9415 433.457 -23.6546 432.918 -23.2491C432.378 -22.8436 431.931 -22.3287 431.605 -21.7381C431.279 -21.1475 431.081 -20.4946 431.025 -19.8223C430.694 -16.9901 432.647 -14.1123 434.588 -12.2166C436.529 -10.3209 441.817 -8.35662 443.222 -7.85415C443.085 -7.00907 442.936 -6.17541 442.81 -5.33033C442.182 -1.29906 441.566 2.66367 440.846 6.66068C440.595 8.0425 440.298 9.40147 440.001 10.749C440.001 9.84686 440.001 9.08172 440.001 8.96751C439.67 5.37022 436.918 -1.31049 432.978 -2.24693C432.317 -2.37781 431.635 -2.36783 430.978 -2.21763C430.321 -2.06744 429.703 -1.7804 429.164 -1.37524C428.625 -0.970078 428.178 -0.455887 427.851 0.133781C427.524 0.72345 427.326 1.37537 427.268 2.047C426.937 4.87916 428.889 7.757 430.831 9.66414C432.772 11.5713 437.557 13.33 439.213 13.9352C438.871 15.3056 438.528 16.6989 438.128 18.0122C437.843 18.9143 437.626 19.7937 437.283 20.6844L436.324 23.2996C435.662 24.9441 434.988 26.6457 434.291 28.2331C433.823 29.3751 433.355 30.3914 432.886 31.4421C433.149 30.0717 433.617 27.3651 433.629 27.1367C433.846 23.5394 432.144 16.459 428.376 14.9973C427.742 14.7725 427.067 14.6842 426.397 14.7382C425.726 14.7923 425.075 14.9875 424.485 15.3109C423.895 15.6344 423.38 16.0789 422.974 16.6153C422.568 17.1517 422.28 17.7678 422.129 18.4233C421.364 21.1755 422.86 24.3503 424.493 26.4858C426.297 28.8383 431.87 31.8418 432.567 32.1958C431.779 33.9316 431.002 35.6218 430.283 37.2092C428.09 41.7772 426.057 45.6942 424.436 48.6292L426.64 50.2051C428.227 47.1332 430.26 43.0562 432.453 38.1913C433.263 36.4326 434.086 34.5255 434.908 32.5612C436.888 33.0516 438.893 33.4328 440.915 33.7032C441.292 36.7181 444.078 41.9256 444.444 42.5994C442.822 43.6272 441.246 44.5979 439.738 45.5001C435.445 48.081 431.676 50.1595 428.718 51.7354L431.116 53.4484C433.88 51.8725 437.237 49.9082 440.983 47.5443C442.639 46.5051 444.409 45.3745 446.145 44.1868C446.67 44.7578 450.999 49.3943 453.728 50.5477C456.218 51.5984 459.666 52.2379 462.133 50.8104C462.724 50.493 463.241 50.0549 463.652 49.5246C464.063 48.9943 464.357 48.3836 464.517 47.7322C464.676 47.0807 464.697 46.403 464.577 45.743C464.458 45.0831 464.201 44.4556 463.823 43.9013C461.459 40.6237 454.173 40.7722 450.747 41.88C450.542 41.9485 448.463 42.9078 447.104 43.5359C447.835 43.0562 448.532 42.588 449.274 42.0741C450.736 41.0806 452.175 40.0413 453.717 38.9222L455.921 37.2092C456.663 36.661 457.382 35.9758 458.136 35.3591C459.826 33.8745 461.471 32.2986 463.092 30.6769C463.972 31.956 467.158 36.4555 469.465 37.8715C471.772 39.2876 475.072 40.4296 477.721 39.3904C478.355 39.1691 478.934 38.8165 479.422 38.3556C479.91 37.8947 480.294 37.3359 480.551 36.7159C480.808 36.0959 480.93 35.4287 480.911 34.758C480.892 34.0872 480.731 33.4281 480.439 32.8239C478.601 29.238 471.383 28.2559 467.82 28.8497C467.603 28.8497 465.102 29.592 463.732 29.9917C464.691 28.9982 465.662 28.0275 466.61 26.9997C469.339 24.0305 472.011 20.9357 474.695 17.8637L477.173 15.0658C477.482 15.5226 481.147 20.9585 483.728 22.5459C486.012 23.9506 489.347 25.104 491.996 24.0648C492.628 23.8405 493.205 23.4861 493.69 23.0247C494.176 22.5632 494.559 22.0049 494.816 21.3859C495.072 20.7669 495.195 20.101 495.178 19.4313C495.16 18.7616 495.002 18.1031 494.714 17.4983C492.876 13.901 485.658 12.9303 482.095 13.5241C481.833 13.5241 478.224 14.5862 477.322 14.8945C479.137 12.8389 480.976 10.8176 482.86 8.88758C485.433 6.28 488.172 3.8424 491.06 1.59019C491.208 1.80717 495.011 7.49433 497.661 9.11597C499.945 10.5206 503.268 11.6741 505.929 10.6348C506.561 10.412 507.139 10.0585 507.626 9.59737C508.113 9.13618 508.497 8.57765 508.753 7.95816C509.01 7.33867 509.133 6.67212 509.114 6.00191C509.096 5.3317 508.937 4.67287 508.647 4.06834C506.797 0.482452 499.579 -0.499664 496.028 0.0941696C495.788 0.0941696 493.047 0.916412 491.745 1.31611L491.642 1.11056C494.574 -1.08978 497.696 -3.02365 500.973 -4.66797C502.765 -5.6044 504.524 -6.38097 506.26 -7.11184C506.865 -5.96984 509.686 -0.842262 511.879 0.882156C514.071 2.60658 517.177 4.0455 519.93 3.3032C520.583 3.15313 521.198 2.86665 521.733 2.46255C522.269 2.05844 522.713 1.54581 523.036 0.958229C523.359 0.370644 523.555 -0.278633 523.61 -0.94709C523.665 -1.61555 523.579 -2.2881 523.356 -2.92071C521.917 -6.70073 514.848 -8.44798 511.251 -8.25385C511.056 -8.25385 509.069 -7.92266 507.63 -7.66C508.418 -7.97976 509.229 -8.32236 509.994 -8.60786C512.838 -9.74986 515.522 -10.515 517.897 -11.223C519.256 -11.6113 520.489 -11.9425 521.643 -12.2394C522.785 -11.4286 527.57 -8.25384 530.276 -7.75136C532.983 -7.24888 536.432 -7.38593 538.533 -9.31591C539.042 -9.75143 539.454 -10.2894 539.742 -10.8947C540.03 -11.5001 540.187 -12.1592 540.203 -12.8293C540.219 -13.4994 540.094 -14.1654 539.836 -14.7839C539.578 -15.4024 539.192 -15.9596 538.704 -16.4191C535.689 -19.1028 528.609 -17.4013 525.503 -15.5741C525.24 -15.4142 521.323 -12.4678 521.38 -12.4221H521.449C520.307 -12.1595 519.165 -11.8626 517.828 -11.52C515.43 -10.869 512.724 -10.1039 509.834 -9.07608C506.72 -7.99471 503.67 -6.73646 500.698 -5.30748C497.323 -3.70636 494.097 -1.80689 491.06 0.368256L490.957 0.448196C491.654 -0.499664 493.538 -3.22904 493.652 -3.45744C495.354 -6.6322 496.781 -13.7354 493.972 -16.6818C493.492 -17.1494 492.92 -17.511 492.291 -17.7433C491.663 -17.9756 490.993 -18.0734 490.325 -18.0304C489.656 -17.9873 489.004 -17.8044 488.411 -17.4934C487.817 -17.1824 487.296 -16.7503 486.88 -16.225C485.042 -14.0438 485.064 -10.515 485.647 -7.91124C486.321 -4.94204 490.295 0.299736 490.615 0.722275C487.607 2.99001 484.754 5.45451 482.072 8.09959C480.508 9.62988 478.978 11.2287 477.504 12.8389C478.087 12.0052 478.646 11.2401 478.646 11.1373C480.348 7.95114 481.775 0.859314 478.966 -2.09846C478.486 -2.56605 477.914 -2.92769 477.286 -3.16C476.657 -3.3923 475.987 -3.49009 475.319 -3.44703C474.65 -3.40397 473.998 -3.22103 473.405 -2.91003C472.812 -2.59904 472.29 -2.16692 471.874 -1.64166C470.024 0.539558 470.059 4.06834 470.641 6.6721C471.223 9.27586 474.547 13.8781 475.437 15.0772C474.855 15.6939 474.295 16.322 473.702 16.9501C470.961 19.965 468.231 22.9799 465.456 25.8691C464.486 26.8855 463.481 27.8448 462.487 28.8155C463.001 28.0618 463.435 27.4337 463.492 27.3309C465.194 24.1447 466.61 17.0529 463.8 14.1065C463.322 13.6366 462.751 13.2727 462.123 13.0384C461.495 12.8042 460.824 12.7048 460.155 12.7468C459.486 12.7888 458.833 12.9713 458.24 13.2823C457.646 13.5933 457.124 14.0259 456.709 14.5519C454.87 16.7331 454.893 20.2619 455.487 22.8657C456.081 25.4694 459.061 29.6377 460.055 31.0538C459.015 32.0131 457.965 32.9838 456.903 33.8631C456.16 34.4569 455.498 35.0736 454.722 35.6218L452.438 37.2777C450.976 38.2827 449.468 39.3333 448.018 40.2697C447.013 40.9321 446.042 41.5488 445.072 42.1769C446.054 41.1719 447.938 39.1734 448.075 38.9907C449.881 36.3821 450.989 33.3551 451.296 30.1973C451.51 29.9188 451.697 29.6205 451.855 29.3065C452.174 28.7157 452.366 28.0643 452.417 27.3947C452.467 26.7251 452.377 26.0523 452.151 25.42C451.925 24.7877 451.568 24.2101 451.104 23.7248C450.64 23.2394 450.078 22.8572 449.457 22.603C445.677 21.1869 439.693 25.321 437.443 28.1417C437.306 28.3016 436.073 30.2772 435.319 31.5677C435.65 30.7569 435.981 29.9803 436.324 29.1467C436.986 27.5022 437.614 25.8463 438.288 24.0648C438.574 23.1968 438.882 22.3175 439.179 21.4267C439.476 20.536 439.716 19.5881 440.001 18.6517C440.595 16.4933 441.143 14.2664 441.554 12.0167C442.993 12.5991 448.132 14.5976 450.839 14.5062C453.545 14.4149 457.028 13.4898 458.673 11.2058C459.077 10.6709 459.365 10.0567 459.516 9.40332C459.667 8.74992 459.679 8.07195 459.551 7.41361C459.423 6.75528 459.157 6.13136 458.772 5.5825C458.386 5.03365 457.89 4.5722 457.314 4.22822C453.797 2.24113 447.241 5.37022 444.603 7.8712C444.432 8.03107 442.731 9.99532 441.817 11.1031C442.091 9.74408 442.354 8.39651 442.582 7.0147C443.222 3.02912 443.724 -0.979301 444.284 -5.05624C444.444 -6.30102 444.626 -7.52297 444.798 -8.75633C445.311 -8.55077 451.364 -6.03837 454.402 -6.14115C457.085 -6.23251 460.489 -7.10042 462.133 -9.4301C462.536 -9.96661 462.822 -10.5817 462.973 -11.2357C463.123 -11.8896 463.135 -12.5679 463.007 -13.2266C462.878 -13.8853 462.614 -14.5098 462.229 -15.0597C461.845 -15.6096 461.349 -16.0728 460.774 -16.4191C457.257 -18.3948 450.702 -15.2086 448.064 -12.7647C447.858 -12.582 445.414 -9.73845 444.832 -8.98472C445.22 -11.7027 445.631 -14.4092 446.145 -17.0472C446.799 -20.6269 447.688 -24.1595 448.806 -27.6222C449.046 -27.5194 455.35 -24.8814 458.456 -24.9841C461.14 -25.0755 464.543 -25.9434 466.187 -28.2731C466.592 -28.808 466.879 -29.4222 467.03 -30.0756C467.182 -30.729 467.194 -31.407 467.066 -32.0653C466.937 -32.7237 466.672 -33.3476 466.286 -33.8964C465.901 -34.4453 465.404 -34.9067 464.828 -35.2507C461.311 -37.2264 454.756 -34.0516 452.118 -31.6077C451.946 -31.4479 450.074 -29.3237 449.217 -28.1817L449.012 -28.2959C450.237 -31.7476 451.765 -35.0838 453.58 -38.2656C454.562 -40.0243 455.601 -41.6916 456.64 -43.2219C457.782 -42.6052 462.944 -39.8644 465.776 -39.6474C468.608 -39.4304 471.943 -39.9329 473.827 -42.0685C474.288 -42.5565 474.64 -43.136 474.862 -43.7692C475.085 -44.4025 475.171 -45.0753 475.116 -45.7441C475.061 -46.4129 474.866 -47.0627 474.544 -47.6512C474.221 -48.2398 473.779 -48.7539 473.245 -49.1603C469.967 -51.5128 463.104 -49.0689 460.203 -46.8763C460.043 -46.7621 458.57 -45.4031 457.519 -44.3867C457.999 -45.0833 458.49 -45.8142 458.958 -46.4766C460.74 -48.9547 462.521 -51.1245 464.12 -53.0202C465.034 -54.0937 465.879 -55.053 466.678 -55.9323C468.106 -55.9323 473.816 -55.9323 476.351 -56.9601C478.886 -57.9879 481.696 -60.055 482.381 -62.8186C482.565 -63.4632 482.612 -64.1394 482.518 -64.8033C482.424 -65.4671 482.191 -66.1036 481.834 -66.6714C481.477 -67.2392 481.005 -67.7255 480.448 -68.0986C479.891 -68.4717 479.262 -68.7233 478.601 -68.8369C474.604 -69.4079 469.636 -64.0862 468.06 -60.8429C467.923 -60.5689 466.279 -55.9438 466.358 -55.9438H466.438C465.65 -55.1101 464.817 -54.1965 463.915 -53.1915C462.282 -51.3301 460.489 -49.1945 458.604 -46.7392C456.594 -44.1193 454.737 -41.3853 453.043 -38.5511C451.129 -35.3843 449.504 -32.0514 448.189 -28.5929C448.183 -28.5512 448.183 -28.5089 448.189 -28.4672C448.258 -29.6092 448.315 -32.9553 448.292 -33.218C447.961 -36.8038 445.209 -43.496 441.269 -44.421C440.607 -44.5537 439.925 -44.5451 439.267 -44.3957C438.609 -44.2462 437.991 -43.9594 437.451 -43.5539C436.912 -43.1484 436.465 -42.6334 436.139 -42.0429C435.812 -41.4523 435.615 -40.7994 435.559 -40.1271C435.262 -37.4091 437.215 -34.4742 439.156 -32.6241Z" fill="#263238"/>
<path d="M333.327 8.00836C336.296 6.86636 341.321 1.89867 341.321 1.89867C341.321 1.89867 337.016 -0.385336 336.753 -0.510956C333.384 -1.77858 326.121 -2.2468 323.608 0.916544C323.206 1.45189 322.921 2.06586 322.772 2.71855C322.622 3.37124 322.612 4.04805 322.741 4.70503C322.871 5.36201 323.137 5.98445 323.522 6.53192C323.908 7.07938 324.404 7.53962 324.979 7.88274C327.32 9.42444 330.803 8.92196 333.327 8.00836Z" fill="#263238"/>
<path d="M349.303 21.1299C351.782 19.3598 355.071 13.6613 355.333 13.2045C358.588 15.0935 361.964 16.7645 365.44 18.2064C367.461 19.0629 369.528 19.8509 371.607 20.6275C370.602 20.4105 369.7 20.2278 369.574 20.2163C365.988 19.8852 358.851 21.3583 357.263 25.0698C357.018 25.6936 356.907 26.362 356.936 27.0315C356.966 27.7011 357.136 28.357 357.435 28.9566C357.735 29.5563 358.157 30.0865 358.674 30.5127C359.191 30.9389 359.792 31.2517 360.438 31.4308C363.156 32.2759 366.388 30.894 368.58 29.3295C370.773 27.765 373.708 22.9343 374.45 21.6553L376.848 22.5232C380.697 23.8822 384.546 25.2297 388.268 26.6572C389.582 27.1711 390.849 27.7079 392.128 28.256C391.249 28.0619 390.495 27.9134 390.381 27.902C386.784 27.5708 379.658 29.044 378.07 32.7441C377.821 33.3676 377.707 34.0366 377.734 34.7075C377.761 35.3784 377.929 36.036 378.228 36.6374C378.526 37.2387 378.948 37.7704 379.466 38.1976C379.984 38.6248 380.587 38.9379 381.234 39.1164C383.963 39.9615 387.184 38.5797 389.376 37.0152C391.569 35.4506 394.218 31.0882 395.086 29.5693C396.377 30.1632 397.679 30.7113 398.901 31.3851C399.723 31.8419 400.556 32.2188 401.367 32.7212L403.765 34.1373C405.261 35.0966 406.803 36.0673 408.231 37.038C409.236 37.7118 410.183 38.3627 411.131 39.0251C409.829 38.5112 407.26 37.5519 407.032 37.4948C403.537 36.6154 396.263 36.9809 394.127 40.4183C393.79 40.9967 393.578 41.6397 393.505 42.3054C393.432 42.9711 393.5 43.6446 393.705 44.2822C393.91 44.9198 394.246 45.5072 394.693 46.0063C395.139 46.5054 395.686 46.9049 396.297 47.179C398.866 48.4352 402.258 47.5558 404.668 46.3453C407.306 45.0092 411.291 40.0871 411.782 39.4933C413.347 40.6353 414.866 41.6631 416.282 42.7023C420.404 45.7172 423.842 48.4123 426.457 50.5593L428.41 48.6978C425.68 46.5623 422.049 43.8101 417.675 40.7038C416.088 39.5618 414.363 38.4198 412.582 37.2778C413.426 35.42 414.158 33.5132 414.774 31.5678C417.812 31.7505 423.442 29.969 424.173 29.7406C424.881 31.5107 425.555 33.2466 426.16 34.9025C427.896 39.5961 429.243 43.6844 430.248 46.882L432.373 44.8379C431.345 41.8344 430.02 38.1686 428.387 34.046C427.679 32.2416 426.891 30.323 426.046 28.336C426.708 27.9248 432.064 24.5331 433.697 22.055C435.182 19.771 436.449 16.5277 435.502 13.844C435.3 13.2042 434.966 12.6141 434.521 12.1121C434.076 11.6102 433.53 11.2076 432.919 10.9307C432.308 10.6538 431.646 10.5087 430.975 10.505C430.304 10.5013 429.64 10.6389 429.026 10.909C425.372 12.622 424.173 19.8052 424.641 23.3797C424.641 23.5967 425.212 25.8464 425.589 27.2625C425.246 26.4631 424.915 25.6865 424.55 24.8643C423.842 23.2426 423.077 21.6438 422.266 19.9194C421.855 19.0972 421.421 18.2749 420.998 17.4413C420.576 16.6076 420.05 15.774 419.582 14.9175C418.44 12.9875 417.195 11.0803 415.893 9.20746C417.321 8.57935 422.334 6.28394 424.15 4.27402C425.966 2.2641 427.702 -0.762207 427.165 -3.5601C427.064 -4.22346 426.824 -4.85808 426.462 -5.42257C426.099 -5.98707 425.621 -6.46875 425.06 -6.83621C424.499 -7.20367 423.866 -7.44864 423.203 -7.55515C422.541 -7.66164 421.864 -7.62729 421.215 -7.45432C417.344 -6.31232 415.06 0.608192 414.98 4.21691C414.98 4.44531 415.208 7.03765 415.357 8.45374C414.569 7.31173 413.792 6.16973 412.959 5.02773C410.537 1.79588 408.002 -1.40172 405.478 -4.59932C404.702 -5.58144 403.937 -6.56356 403.194 -7.55711C403.697 -7.77409 409.715 -10.3778 411.748 -12.6162C413.552 -14.6147 415.3 -17.6638 414.774 -20.4617C414.672 -21.1253 414.431 -21.7599 414.067 -22.324C413.703 -22.8882 413.224 -23.3691 412.662 -23.7356C412.099 -24.102 411.465 -24.3457 410.802 -24.4506C410.139 -24.5555 409.461 -24.5194 408.813 -24.3445C404.953 -23.2025 402.669 -16.282 402.589 -12.6733C402.589 -12.4106 402.92 -8.67626 403.046 -7.7284C401.367 -9.89821 399.711 -12.0794 398.17 -14.2835C396.067 -17.259 394.159 -20.3679 392.46 -23.5908C392.688 -23.6936 398.992 -26.3773 401.07 -28.6841C402.875 -30.6712 404.622 -33.7203 404.097 -36.5182C403.993 -37.1812 403.751 -37.815 403.386 -38.3786C403.022 -38.9422 402.543 -39.423 401.981 -39.7901C401.42 -40.1571 400.787 -40.4021 400.124 -40.5093C399.462 -40.6166 398.784 -40.5835 398.135 -40.4124C394.264 -39.2704 391.991 -32.3385 391.911 -28.7412C391.911 -28.5014 392.151 -25.6578 392.311 -24.3102L392.083 -24.2417C390.465 -27.5443 389.142 -30.9837 388.131 -34.5197C387.549 -36.4497 387.104 -38.3226 386.704 -40.1612C387.937 -40.5495 393.499 -42.3538 395.612 -44.2153C397.724 -46.0768 399.7 -48.7833 399.472 -51.6726C399.448 -52.3468 399.283 -53.0086 398.986 -53.6144C398.689 -54.2202 398.268 -54.7564 397.749 -55.1877C397.23 -55.6191 396.626 -55.9359 395.976 -56.1173C395.326 -56.2988 394.646 -56.3408 393.978 -56.2406C390.004 -55.5211 386.989 -48.8975 386.51 -45.323C386.51 -45.1289 386.43 -43.119 386.418 -41.6572C386.259 -42.4909 386.064 -43.3474 385.927 -44.1468C385.379 -47.1617 385.071 -49.9367 384.785 -52.4034C384.648 -53.8195 384.557 -55.0871 384.477 -56.2748C385.482 -57.2798 389.49 -61.3567 390.473 -63.9376C391.455 -66.5186 391.98 -69.9217 390.473 -72.3428C390.138 -72.9242 389.685 -73.4285 389.142 -73.823C388.6 -74.2175 387.98 -74.4932 387.324 -74.6322C386.668 -74.7712 385.99 -74.7704 385.334 -74.6297C384.678 -74.4891 384.059 -74.2118 383.518 -73.8159C380.32 -71.3492 380.686 -64.0747 381.908 -60.6829C382.01 -60.3974 384.192 -56.0007 384.249 -56.0464L384.306 -56.1149C384.306 -54.9729 384.42 -53.7282 384.523 -52.392C384.728 -49.9139 384.98 -47.1046 385.459 -44.0783C385.935 -40.8091 386.606 -37.5714 387.469 -34.3827C388.408 -30.8059 389.666 -27.3203 391.226 -23.9676L391.295 -23.8534C390.484 -24.7214 388.154 -27.0625 387.96 -27.2794C385.151 -29.5634 378.39 -32.2586 375.021 -30.0317C374.471 -29.6483 374.007 -29.1531 373.661 -28.5785C373.314 -28.0039 373.093 -27.3627 373.011 -26.6967C372.929 -26.0308 372.988 -25.3551 373.185 -24.7136C373.382 -24.0722 373.712 -23.4795 374.153 -22.9741C375.958 -20.77 379.407 -20.1419 382.147 -20.2447C385.185 -20.3475 391.078 -23.2824 391.546 -23.5223C393.226 -20.1455 395.134 -16.8871 397.256 -13.7696C398.467 -11.9424 399.757 -10.1494 401.059 -8.3565C400.339 -9.08738 399.7 -9.72691 399.597 -9.80685C396.788 -12.0908 390.027 -14.786 386.658 -12.5591C386.108 -12.1757 385.644 -11.6805 385.298 -11.1059C384.951 -10.5313 384.73 -9.89008 384.648 -9.22414C384.566 -8.5582 384.625 -7.88247 384.822 -7.24104C385.019 -6.5996 385.349 -6.00687 385.79 -5.5015C387.595 -3.29744 391.044 -2.66935 393.784 -2.7607C396.525 -2.85207 401.584 -5.26168 402.92 -5.92404C403.434 -5.23885 403.925 -4.55364 404.439 -3.87986C406.895 -0.613739 409.361 2.62954 411.679 5.87282C412.502 7.01482 413.267 8.15682 414.032 9.29882L412.764 8.0312C409.955 5.7472 403.194 3.06349 399.826 5.27898C399.275 5.66235 398.811 6.1575 398.465 6.73213C398.118 7.30676 397.897 7.94796 397.815 8.6139C397.733 9.27984 397.793 9.95557 397.99 10.597C398.186 11.2384 398.516 11.8312 398.958 12.3365C400.751 14.552 404.211 15.1801 406.952 15.0773C409.692 14.9746 414.26 12.7933 415.848 12.0396C416.602 13.2501 417.355 14.4607 418.029 15.6598C418.463 16.4934 418.943 17.27 419.342 18.1265C419.742 18.983 420.165 19.8052 420.564 20.6389C421.284 22.2605 422.026 23.9278 422.688 25.5266C423.157 26.6686 423.579 27.7079 424.013 28.7813C423.214 27.6393 421.592 25.3553 421.444 25.2411C419.212 22.9827 416.441 21.3317 413.392 20.4447C413.159 20.1824 412.899 19.9451 412.616 19.7367C412.094 19.3145 411.488 19.0073 410.839 18.8351C410.19 18.6629 409.512 18.6296 408.849 18.7374C408.186 18.8452 407.553 19.0916 406.992 19.4606C406.431 19.8296 405.954 20.3128 405.593 20.8787C403.503 24.3047 406.449 30.9854 408.813 33.7034C408.95 33.8632 410.663 35.4392 411.748 36.4213C411.017 35.9417 410.321 35.4735 409.567 34.9938C408.071 34.0345 406.552 33.1095 404.93 32.1274L402.498 30.757C401.698 30.2774 400.785 29.8777 399.928 29.4437C397.907 28.4502 395.817 27.548 393.693 26.6801C394.527 25.3782 397.439 20.696 397.85 18.0237C398.261 15.3514 398.033 11.8569 396.046 9.81271C395.597 9.31393 395.048 8.91508 394.435 8.64207C393.823 8.36905 393.159 8.22796 392.488 8.22796C391.817 8.22796 391.154 8.36905 390.541 8.64207C389.928 8.91508 389.38 9.31393 388.931 9.81271C386.339 12.9075 388.257 19.9308 390.176 22.98C390.29 23.1741 391.923 25.264 392.836 26.3032C391.546 25.8007 390.267 25.2868 388.954 24.8072C385.162 23.4482 381.279 22.1806 377.408 20.9015L373.868 19.7595C374.165 19.3027 377.751 13.8097 378.207 10.8063C378.607 8.1454 378.39 4.63946 376.403 2.6067C375.954 2.10792 375.406 1.70907 374.793 1.43605C374.18 1.16303 373.517 1.02194 372.846 1.02194C372.175 1.02194 371.511 1.16303 370.899 1.43605C370.286 1.70907 369.737 2.10792 369.288 2.6067C366.696 5.70152 368.615 12.7362 370.533 15.7854C370.67 16.0138 373.011 18.9373 373.651 19.6568C371.047 18.766 368.466 17.8752 365.965 16.8817C362.576 15.5687 359.273 14.043 356.076 12.3137C356.213 12.0967 359.981 6.37529 360.449 3.31474C360.861 0.65387 360.632 -2.85206 358.645 -4.89624C358.196 -5.39503 357.648 -5.79387 357.035 -6.06689C356.422 -6.3399 355.759 -6.481 355.088 -6.481C354.417 -6.481 353.753 -6.3399 353.141 -6.06689C352.528 -5.79387 351.979 -5.39503 351.53 -4.89624C348.938 -1.80142 350.857 5.22188 352.775 8.27102C352.901 8.47658 354.682 10.7035 355.55 11.697L355.402 11.8797C352.238 10.0294 349.246 7.90061 346.46 5.51879C344.907 4.22833 343.491 2.90362 342.155 1.59032C342.965 0.596779 346.62 -3.98264 347.339 -6.68918C348.059 -9.39572 348.207 -12.7989 346.448 -15.0486C346.055 -15.5919 345.552 -16.0463 344.972 -16.3821C344.391 -16.7179 343.747 -16.9277 343.08 -16.9977C342.413 -17.0678 341.739 -16.9965 341.101 -16.7886C340.463 -16.5806 339.877 -16.2407 339.379 -15.7909C336.456 -12.993 337.598 -5.79842 339.163 -2.55515C339.254 -2.38385 340.305 -0.682259 341.115 0.53968C340.522 -0.0655823 339.893 -0.670837 339.334 -1.26468C337.221 -3.46874 335.417 -5.61571 333.852 -7.53426C332.961 -8.67627 332.185 -9.64696 331.454 -10.5948C331.751 -11.9881 332.836 -17.5953 332.242 -20.2904C331.648 -22.9855 330.186 -26.1146 327.594 -27.3023C326.971 -27.6087 326.288 -27.7757 325.594 -27.7919C324.9 -27.808 324.21 -27.6728 323.574 -27.3957C322.937 -27.1186 322.368 -26.7063 321.907 -26.1873C321.445 -25.6682 321.103 -25.055 320.902 -24.3902C319.6 -20.5645 323.917 -14.706 326.806 -12.5476C327.057 -12.3649 331.294 -9.8982 331.317 -9.96672C331.34 -10.0352 331.317 -10.0352 331.317 -10.0581C331.991 -9.12164 332.722 -8.12811 333.601 -7.06604C335.131 -5.11322 336.89 -2.92059 338.957 -0.659424C341.16 1.8054 343.505 4.13908 345.98 6.32962C348.741 8.79192 351.714 11.0046 354.865 12.9418H354.991C353.849 12.6677 350.594 11.9825 350.343 11.9597C346.757 11.6285 339.619 13.1017 338.032 16.8018C337.785 17.4262 337.672 18.0956 337.701 18.7665C337.729 19.4374 337.899 20.0948 338.198 20.6958C338.498 21.2969 338.921 21.8281 339.439 22.2551C339.957 22.6821 340.559 22.9952 341.207 23.1741C343.89 24.0763 347.168 22.6945 349.303 21.1299Z" fill="#263238"/>
<path d="M164.265 349.638C166.389 350.369 169.975 353.874 169.975 353.874C169.975 353.874 166.938 355.576 166.732 355.656C164.345 356.615 159.172 357.061 157.333 354.845C157.042 354.468 156.832 354.034 156.718 353.57C156.603 353.107 156.587 352.625 156.67 352.156C156.753 351.686 156.933 351.238 157.198 350.842C157.464 350.446 157.809 350.11 158.213 349.855C159.96 348.713 162.449 349.01 164.265 349.638Z" fill="#263238"/>
<path d="M202.625 383.429C202.625 383.429 201.026 386.524 200.901 386.707C199.439 388.82 195.362 392.04 192.61 391.206C192.158 391.053 191.743 390.806 191.392 390.483C191.041 390.16 190.762 389.767 190.571 389.329C190.381 388.892 190.284 388.419 190.287 387.942C190.29 387.465 190.393 386.994 190.588 386.559C191.376 384.686 193.603 383.555 195.465 383.075C197.646 382.516 202.625 383.429 202.625 383.429Z" fill="#263238"/>
<path d="M175.457 340.102C177.25 341.324 179.682 345.344 179.876 345.664C182.17 344.265 184.554 343.021 187.014 341.941C188.441 341.313 189.903 340.707 191.365 340.136C190.657 340.296 190.017 340.445 189.926 340.445C187.379 340.742 182.275 339.805 181.075 337.179C180.896 336.738 180.81 336.265 180.824 335.789C180.837 335.314 180.95 334.846 181.154 334.416C181.358 333.987 181.649 333.604 182.009 333.293C182.369 332.982 182.79 332.75 183.245 332.611C185.175 331.96 187.494 332.896 189.081 333.981C190.668 335.066 192.838 338.469 193.386 339.371L195.088 338.709C197.806 337.681 200.524 336.665 203.162 335.591C204.098 335.214 205 334.803 205.903 334.449L204.658 334.723C202.1 335.009 196.995 334.072 195.807 331.446C195.628 331.005 195.542 330.532 195.556 330.056C195.569 329.581 195.681 329.113 195.886 328.684C196.09 328.254 196.381 327.871 196.741 327.56C197.101 327.249 197.522 327.017 197.977 326.878C199.896 326.227 202.214 327.175 203.801 328.248C205.389 329.322 207.341 332.405 208.015 333.478C208.917 333.033 209.842 332.588 210.699 332.119C211.281 331.788 211.841 331.503 212.435 331.137L214.125 330.087C215.176 329.39 216.272 328.659 217.277 327.951L219.264 326.398C218.339 326.786 216.523 327.54 216.363 327.54C213.885 328.214 208.689 328.054 207.124 325.644C206.877 325.235 206.717 324.779 206.657 324.305C206.596 323.83 206.635 323.349 206.772 322.89C206.908 322.432 207.139 322.008 207.45 321.644C207.76 321.28 208.144 320.986 208.575 320.779C210.379 319.854 212.812 320.425 214.547 321.259C216.283 322.093 219.355 325.621 219.721 326.055C220.863 325.256 221.891 324.457 222.884 323.703C225.773 321.487 228.183 319.5 230.022 317.993L231.438 319.295C229.519 320.848 226.972 322.869 223.9 325.108C222.758 325.93 221.616 326.786 220.326 327.643C220.952 328.953 221.501 330.299 221.97 331.674C224.254 331.744 226.518 332.128 228.697 332.816C229.176 331.537 229.633 330.292 230.033 329.105C231.175 325.736 232.111 322.801 232.774 320.505L234.315 321.921C233.63 324.08 232.74 326.718 231.643 329.687C231.164 330.977 230.627 332.359 230.056 333.775C230.535 334.049 234.407 336.391 235.606 338.138C236.805 339.885 237.65 342.032 237.011 343.962C236.874 344.419 236.643 344.842 236.333 345.205C236.023 345.567 235.641 345.861 235.211 346.068C234.781 346.274 234.313 346.388 233.836 346.403C233.359 346.418 232.885 346.334 232.443 346.155C229.816 345.013 228.845 339.874 229.119 337.316C229.119 337.167 229.496 335.557 229.747 334.54C229.508 335.111 229.291 335.682 229.039 336.265C228.56 337.407 228.034 338.549 227.486 339.828C227.201 340.41 226.915 340.97 226.618 341.609C226.321 342.249 225.967 342.82 225.648 343.425C224.86 344.83 224.003 346.2 223.101 347.571C224.129 348.005 227.738 349.569 229.062 350.997C230.387 352.424 231.666 354.537 231.346 356.547C231.28 357.018 231.115 357.471 230.864 357.876C230.613 358.28 230.28 358.628 229.886 358.897C229.493 359.165 229.048 359.349 228.58 359.436C228.111 359.523 227.63 359.511 227.167 359.402C224.392 358.648 222.656 353.749 222.599 351.179C222.599 351.02 222.713 349.169 222.804 348.153C222.256 348.975 221.662 349.786 221.137 350.597C219.458 352.938 217.711 355.256 215.941 357.575C215.404 358.283 214.879 359.002 214.353 359.71C214.719 359.859 219.047 361.629 220.532 363.205C221.845 364.598 223.135 366.745 222.816 368.743C222.749 369.216 222.585 369.67 222.332 370.076C222.08 370.481 221.746 370.829 221.352 371.098C220.957 371.367 220.511 371.55 220.041 371.637C219.571 371.723 219.089 371.71 218.624 371.598C215.849 370.845 214.125 365.945 214.056 363.376C214.056 363.182 214.228 360.521 214.308 359.847C213.166 361.412 212.024 362.988 210.882 364.587C209.433 366.741 208.121 368.983 206.953 371.301C207.124 371.37 211.658 373.197 213.177 374.807C214.49 376.201 215.781 378.348 215.461 380.358C215.395 380.83 215.23 381.284 214.978 381.69C214.726 382.095 214.392 382.444 213.997 382.712C213.603 382.981 213.156 383.165 212.686 383.251C212.217 383.337 211.734 383.324 211.27 383.213C208.495 382.447 206.77 377.503 206.702 374.99C206.702 374.819 206.828 372.786 206.919 371.827H206.759C205.654 374.194 204.763 376.655 204.098 379.181C203.71 380.563 203.413 381.911 203.162 383.235C204.041 383.487 208.038 384.686 209.568 385.988C211.099 387.289 212.549 389.219 212.435 391.241C212.421 391.718 212.308 392.187 212.102 392.618C211.896 393.048 211.603 393.431 211.24 393.742C210.878 394.053 210.455 394.285 209.998 394.422C209.541 394.56 209.06 394.6 208.586 394.541C205.743 394.096 203.493 389.414 203.093 386.878C203.093 386.741 203.013 385.314 202.979 384.263C202.876 384.868 202.751 385.474 202.671 386.045C202.328 388.203 202.145 390.19 201.997 391.949C201.917 392.954 201.871 393.867 201.837 394.712C202.568 395.421 205.48 398.264 206.222 400.091C206.965 401.918 207.364 404.328 206.348 406.075C206.115 406.491 205.797 406.853 205.416 407.139C205.034 407.425 204.598 407.628 204.133 407.736C203.669 407.843 203.187 407.852 202.719 407.763C202.251 407.674 201.807 407.488 201.414 407.217C199.13 405.516 199.245 400.365 200.067 397.887C200.147 397.67 201.631 394.461 201.666 394.541C201.666 393.719 201.666 392.84 201.768 391.88C201.871 390.11 202.008 388.112 202.305 385.953C202.604 383.616 203.035 381.298 203.596 379.01C204.215 376.443 205.059 373.936 206.12 371.518C206.123 371.492 206.123 371.465 206.12 371.439C205.56 372.067 203.938 373.78 203.836 373.894C201.86 375.55 197.086 377.582 194.642 376.052C194.246 375.784 193.911 375.437 193.657 375.032C193.403 374.626 193.237 374.172 193.169 373.699C193.102 373.226 193.134 372.744 193.263 372.284C193.393 371.823 193.618 371.395 193.923 371.027C195.179 369.429 197.623 368.938 199.553 368.96C201.711 368.96 205.96 371.005 206.291 371.164C207.413 368.723 208.695 366.357 210.128 364.084C210.973 362.759 211.864 361.457 212.766 360.167C212.263 360.692 211.807 361.16 211.738 361.218C209.774 362.873 204.989 364.906 202.602 363.376C202.206 363.108 201.87 362.761 201.617 362.355C201.363 361.95 201.197 361.496 201.129 361.023C201.061 360.55 201.093 360.067 201.223 359.607C201.353 359.147 201.578 358.719 201.883 358.351C203.127 356.752 205.583 356.261 207.501 356.284C209.42 356.307 213.109 357.951 214.068 358.397L215.118 356.924C216.82 354.56 218.544 352.207 220.143 349.855C220.703 349.032 221.285 348.187 221.765 347.354C221.32 347.822 220.943 348.222 220.874 348.267C218.898 349.923 214.125 351.956 211.738 350.426C211.344 350.158 211.01 349.811 210.757 349.407C210.504 349.002 210.339 348.55 210.271 348.078C210.204 347.606 210.235 347.125 210.364 346.666C210.492 346.207 210.716 345.78 211.019 345.412C212.263 343.802 214.719 343.311 216.637 343.334C218.556 343.357 221.879 344.841 223.021 345.367C223.546 344.499 224.06 343.631 224.529 342.763C224.825 342.158 225.157 341.621 225.431 340.981C225.705 340.342 225.99 339.771 226.264 339.177C226.744 338.035 227.258 336.802 227.703 335.66C228.023 334.86 228.309 334.095 228.594 333.319C228.046 334.152 226.927 335.751 226.813 335.877C225.265 337.525 223.318 338.744 221.16 339.417C220.991 339.603 220.808 339.775 220.611 339.931C220.246 340.238 219.82 340.464 219.361 340.597C218.902 340.729 218.421 340.764 217.947 340.7C217.474 340.635 217.02 340.473 216.613 340.222C216.207 339.972 215.857 339.639 215.587 339.246C214.045 336.813 216.055 332.028 217.688 330.041C217.791 329.927 218.978 328.785 219.744 328.065C219.23 328.419 218.739 328.762 218.202 329.116C217.163 329.824 216.089 330.498 214.947 331.229L213.234 332.245C212.675 332.599 212.024 332.896 211.418 333.216C210.002 333.958 208.518 334.632 207.01 335.271C207.627 336.196 209.774 339.497 210.105 341.392C210.436 343.288 210.333 345.789 208.963 347.274C208.647 347.631 208.259 347.919 207.825 348.118C207.391 348.317 206.92 348.423 206.443 348.43C205.966 348.436 205.492 348.343 205.053 348.156C204.614 347.968 204.218 347.691 203.893 347.342C202.008 345.172 203.265 340.136 204.589 337.932C204.669 337.795 205.8 336.322 206.428 335.523C205.526 335.911 204.623 336.288 203.687 336.665C201.003 337.692 198.251 338.652 195.51 339.622C194.677 339.908 193.843 340.216 193.009 340.525C193.226 340.844 195.864 344.704 196.23 346.84C196.561 348.724 196.458 351.225 195.088 352.71C194.772 353.066 194.386 353.353 193.954 353.552C193.521 353.751 193.052 353.858 192.576 353.865C192.1 353.873 191.628 353.781 191.189 353.596C190.75 353.411 190.355 353.136 190.029 352.79C188.133 350.62 189.389 345.584 190.714 343.38C190.805 343.208 192.438 341.096 192.872 340.57C191.034 341.244 189.206 341.918 187.436 342.672C185.036 343.655 182.705 344.799 180.459 346.098C180.562 346.246 183.325 350.266 183.713 352.447C184.033 354.331 183.93 356.832 182.571 358.317C182.256 358.675 181.869 358.964 181.435 359.164C181.002 359.364 180.531 359.471 180.054 359.479C179.576 359.486 179.103 359.394 178.663 359.208C178.223 359.021 177.828 358.745 177.501 358.397C175.605 356.227 176.861 351.191 178.186 348.987C178.278 348.838 179.511 347.228 180.116 346.474L180.002 346.349C177.774 347.712 175.672 349.271 173.721 351.008C172.636 351.956 171.654 352.915 170.718 353.875C171.3 354.571 173.972 357.78 174.532 359.699C175.091 361.617 175.24 364.05 174.029 365.671C173.754 366.062 173.401 366.392 172.991 366.638C172.581 366.884 172.125 367.042 171.65 367.101C171.176 367.16 170.695 367.119 170.237 366.981C169.779 366.843 169.356 366.611 168.993 366.3C166.869 364.358 167.566 359.219 168.639 356.878C168.696 356.752 169.438 355.53 169.987 354.594C169.576 355.028 169.13 355.473 168.742 355.907C167.269 357.506 166.024 359.071 164.928 360.475C164.311 361.263 163.786 362.006 163.272 362.691C163.5 363.673 164.357 367.658 163.968 369.543C163.58 371.427 162.598 373.722 160.759 374.602C160.337 374.821 159.873 374.95 159.397 374.98C158.922 375.01 158.445 374.941 157.998 374.776C157.551 374.612 157.143 374.356 156.801 374.025C156.458 373.694 156.188 373.296 156.009 372.855C155.026 370.148 158.018 365.9 160.04 364.324C160.223 364.187 163.203 362.371 163.215 362.417C163.683 361.743 164.197 361.023 164.768 360.258C165.83 358.842 167.052 357.243 168.491 355.61C170.028 353.823 171.668 352.126 173.401 350.528C175.301 348.782 177.349 347.204 179.522 345.812H179.602C178.791 346.029 176.485 346.566 176.313 346.589C173.755 346.874 168.65 345.938 167.463 343.311C167.283 342.871 167.197 342.399 167.21 341.924C167.223 341.449 167.334 340.982 167.537 340.552C167.74 340.123 168.03 339.74 168.389 339.428C168.748 339.117 169.167 338.884 169.621 338.743C171.551 338.024 173.869 338.96 175.457 340.102Z" fill="#263238"/>
<path d="M233.448 365.968C235.549 365.135 240.596 365.432 240.596 365.432C240.596 365.432 239.386 368.698 239.283 368.858C238.141 371.142 234.453 374.83 231.609 374.339C231.143 374.241 230.702 374.047 230.315 373.769C229.928 373.491 229.603 373.136 229.361 372.725C229.12 372.314 228.966 371.858 228.911 371.385C228.855 370.912 228.899 370.432 229.039 369.977C229.542 368.058 231.666 366.665 233.448 365.968Z" fill="#263238"/>
<path d="M284.564 366.71C284.564 366.71 285.363 370.136 285.386 370.319C285.648 372.877 284.655 377.971 281.96 379.124C281.516 379.303 281.04 379.386 280.562 379.37C280.084 379.354 279.615 379.237 279.185 379.029C278.754 378.82 278.373 378.524 278.064 378.158C277.755 377.793 277.526 377.367 277.392 376.909C276.764 374.979 277.734 372.66 278.831 371.096C280.19 369.246 284.564 366.71 284.564 366.71Z" fill="#263238"/>
<path d="M235.72 351.396C237.879 351.168 242.332 352.641 242.686 352.755C243.524 350.202 244.531 347.707 245.701 345.287C246.364 343.882 247.094 342.477 247.825 341.084C247.403 341.667 247.003 342.226 246.946 342.226C245.187 344.099 240.699 346.714 238.095 345.492C237.669 345.276 237.292 344.972 236.99 344.601C236.688 344.231 236.467 343.8 236.341 343.339C236.215 342.877 236.188 342.395 236.26 341.922C236.332 341.449 236.502 340.996 236.759 340.593C237.799 338.857 240.185 338.058 242.081 337.852C243.977 337.647 247.848 338.812 248.865 339.143L249.721 337.544C251.126 334.986 252.53 332.451 253.832 329.915C254.3 329.025 254.712 328.134 255.134 327.232C254.757 327.757 254.426 328.191 254.369 328.248C252.622 330.132 248.122 332.736 245.518 331.514C245.094 331.298 244.719 330.994 244.418 330.625C244.116 330.255 243.896 329.826 243.77 329.366C243.644 328.906 243.616 328.424 243.687 327.953C243.758 327.481 243.927 327.029 244.182 326.626C245.233 324.879 247.608 324.091 249.515 323.886C251.423 323.68 254.906 324.731 256.105 325.119C256.505 324.183 256.916 323.258 257.247 322.333C257.475 321.704 257.738 321.111 257.921 320.46C258.103 319.809 258.332 319.192 258.526 318.564C258.868 317.342 259.222 316.097 259.531 314.898C259.748 314.064 259.931 313.265 260.125 312.466C259.679 313.356 258.766 315.092 258.674 315.229C257.224 317.353 253.181 320.608 250.418 319.797C249.964 319.647 249.547 319.404 249.194 319.083C248.84 318.762 248.557 318.371 248.364 317.934C248.17 317.497 248.07 317.025 248.07 316.548C248.07 316.07 248.169 315.598 248.362 315.161C249.127 313.288 251.354 312.134 253.216 311.643C255.26 311.095 259.702 311.826 260.262 311.918C260.581 310.593 260.878 309.302 261.13 308.08C261.895 304.517 262.431 301.445 262.82 299.059L264.738 299.139C264.304 301.56 263.676 304.746 262.797 308.446C262.477 309.793 262.123 311.232 261.735 312.706C263.061 313.288 264.35 313.951 265.595 314.693C267.384 313.285 269.359 312.132 271.465 311.267C270.997 309.976 270.528 308.743 270.071 307.578C268.77 304.255 267.548 301.434 266.554 299.253L268.655 299.333C269.535 301.423 270.574 303.992 271.659 306.973C272.15 308.263 272.63 309.668 273.121 311.107C273.669 311.015 278.123 310.273 280.167 310.81C282.028 311.301 284.255 312.443 285.032 314.327C285.225 314.764 285.324 315.236 285.324 315.714C285.324 316.191 285.223 316.664 285.03 317.1C284.836 317.537 284.554 317.928 284.2 318.249C283.846 318.57 283.429 318.813 282.976 318.964C280.212 319.786 276.124 316.531 274.719 314.396C274.628 314.27 273.851 312.808 273.383 311.883C273.577 312.466 273.772 313.025 273.966 313.653C274.354 314.852 274.719 316.063 275.108 317.365C275.268 318.004 275.439 318.644 275.599 319.283C275.759 319.923 275.896 320.631 276.044 321.305C276.352 322.869 276.604 324.48 276.809 326.101C277.86 325.759 281.617 324.605 283.536 324.811C285.454 325.016 287.818 325.804 288.869 327.552C289.125 327.954 289.294 328.405 289.366 328.876C289.438 329.347 289.41 329.828 289.286 330.288C289.161 330.748 288.942 331.177 288.642 331.547C288.342 331.918 287.968 332.222 287.544 332.439C284.94 333.673 280.441 331.069 278.694 329.196C278.579 329.07 277.472 327.586 276.878 326.752C276.992 327.734 277.118 328.705 277.209 329.698C277.46 332.565 277.62 335.477 277.803 338.378C277.803 339.268 277.917 340.148 277.974 341.039C278.351 340.913 282.793 339.44 284.94 339.668C286.847 339.874 289.223 340.662 290.273 342.398C290.531 342.8 290.702 343.252 290.775 343.724C290.848 344.197 290.821 344.679 290.696 345.141C290.572 345.602 290.352 346.032 290.051 346.403C289.75 346.775 289.374 347.079 288.949 347.297C286.345 348.519 281.845 345.926 280.087 344.042C279.961 343.905 278.362 341.758 277.986 341.198C278.123 343.151 278.271 345.093 278.499 347C278.8 349.577 279.261 352.132 279.881 354.651C280.064 354.594 284.689 353.041 286.882 353.281C288.789 353.475 291.164 354.274 292.215 356.01C292.473 356.413 292.644 356.864 292.717 357.337C292.789 357.809 292.763 358.292 292.638 358.753C292.513 359.215 292.293 359.645 291.992 360.016C291.691 360.387 291.316 360.692 290.89 360.909C288.286 362.131 283.787 359.539 282.04 357.655C281.925 357.529 280.703 355.896 280.144 355.108L279.995 355.176C280.692 357.699 281.617 360.153 282.759 362.508C283.364 363.81 284.015 365.021 284.678 366.185C285.511 365.808 289.337 364.118 291.336 364.118C293.334 364.118 295.709 364.632 296.931 366.254C297.23 366.625 297.448 367.054 297.571 367.515C297.694 367.975 297.72 368.456 297.647 368.926C297.574 369.397 297.403 369.847 297.146 370.248C296.889 370.649 296.552 370.993 296.155 371.256C293.699 372.763 288.949 370.673 287.019 368.972C286.916 368.88 285.877 367.83 285.237 367.065C285.546 367.579 285.854 368.127 286.162 368.618C287.304 370.479 288.446 372.101 289.485 373.54C290.079 374.351 290.627 375.07 291.164 375.744C292.169 375.744 296.235 376.064 298.016 376.966C299.798 377.868 301.648 379.444 302.002 381.442C302.097 381.911 302.093 382.394 301.99 382.86C301.887 383.327 301.688 383.767 301.405 384.152C301.122 384.537 300.762 384.858 300.348 385.096C299.933 385.333 299.474 385.481 298.998 385.531C296.132 385.736 292.866 381.694 291.907 379.307C291.827 379.101 290.902 375.732 290.959 375.732H291.016C290.49 375.104 289.942 374.419 289.36 373.654C288.286 372.238 287.076 370.628 285.934 368.789C284.639 366.823 283.461 364.783 282.405 362.679C281.207 360.328 280.221 357.874 279.459 355.348C279.459 355.348 279.459 355.279 279.459 355.256C279.459 356.101 279.322 358.454 279.287 358.682C278.865 361.218 276.558 365.866 273.714 366.288C273.24 366.342 272.759 366.297 272.303 366.154C271.847 366.011 271.426 365.775 271.066 365.46C270.707 365.145 270.418 364.758 270.217 364.324C270.016 363.891 269.908 363.42 269.9 362.942C269.809 360.909 271.351 358.934 272.824 357.712C274.491 356.33 279.025 355.097 279.39 354.994C278.677 352.406 278.139 349.774 277.78 347.114C277.563 345.561 277.392 343.996 277.232 342.42C277.232 343.151 277.163 343.802 277.14 343.894C276.718 346.429 274.411 351.077 271.568 351.499C271.083 351.564 270.59 351.525 270.121 351.384C269.653 351.243 269.22 351.003 268.853 350.68C268.485 350.358 268.19 349.96 267.989 349.515C267.787 349.069 267.684 348.585 267.685 348.096C267.593 346.075 269.135 344.099 270.608 342.866C272.081 341.632 275.953 340.502 276.969 340.216C276.969 339.611 276.866 339.006 276.809 338.401C276.569 335.5 276.341 332.611 276.033 329.778C275.93 328.773 275.781 327.791 275.644 326.821C275.644 327.46 275.576 327.963 275.565 328.088C275.142 330.623 272.835 335.283 269.98 335.694C269.506 335.746 269.027 335.7 268.572 335.556C268.117 335.413 267.698 335.176 267.34 334.861C266.982 334.546 266.693 334.16 266.493 333.727C266.293 333.294 266.185 332.825 266.177 332.348C266.086 330.327 267.628 328.351 269.101 327.129C270.574 325.907 274.068 324.845 275.279 324.514C275.108 323.52 274.936 322.515 274.719 321.556C274.56 320.905 274.445 320.266 274.251 319.615L273.703 317.707C273.315 316.497 272.926 315.252 272.561 314.087C272.287 313.276 272.001 312.511 271.727 311.735C271.842 312.728 272.036 314.681 272.036 314.841C271.922 317.099 271.23 319.289 270.026 321.202C270.027 321.455 270.004 321.707 269.957 321.956C269.878 322.427 269.701 322.877 269.438 323.276C269.175 323.675 268.831 324.014 268.429 324.272C268.027 324.53 267.575 324.701 267.102 324.774C266.63 324.848 266.148 324.821 265.686 324.697C262.934 323.851 261.347 318.907 261.312 316.337C261.312 316.189 261.461 314.544 261.586 313.505C261.415 314.099 261.267 314.647 261.095 315.298C260.764 316.52 260.387 317.73 259.953 319.032C259.748 319.649 259.531 320.277 259.314 320.905C259.097 321.533 258.823 322.184 258.572 322.824C257.966 324.308 257.281 325.781 256.562 327.255C257.624 327.551 261.404 328.659 262.888 329.893C264.373 331.126 265.915 333.079 265.823 335.112C265.817 335.589 265.71 336.06 265.511 336.494C265.311 336.928 265.023 337.316 264.665 337.632C264.307 337.948 263.887 338.186 263.431 338.33C262.976 338.474 262.495 338.522 262.02 338.469C259.165 338.046 256.859 333.41 256.425 330.875C256.425 330.715 256.299 328.853 256.265 327.837C255.819 328.716 255.385 329.596 254.906 330.475C253.535 332.999 252.074 335.523 250.612 338.035L249.299 340.319C249.675 340.422 254.198 341.644 255.854 343.014C257.509 344.385 258.88 346.212 258.8 348.245C258.792 348.722 258.684 349.193 258.483 349.627C258.282 350.06 257.993 350.447 257.634 350.762C257.275 351.077 256.853 351.314 256.397 351.456C255.941 351.599 255.46 351.645 254.986 351.591C252.142 351.179 249.824 346.532 249.401 343.996C249.401 343.802 249.219 341.141 249.219 340.456C248.259 342.158 247.311 343.882 246.444 345.584C245.274 347.901 244.248 350.289 243.372 352.733C243.554 352.733 248.271 354.034 249.972 355.439C251.457 356.672 252.999 358.637 252.907 360.67C252.899 361.146 252.791 361.616 252.591 362.049C252.391 362.481 252.103 362.868 251.745 363.183C251.387 363.497 250.967 363.734 250.513 363.878C250.058 364.021 249.578 364.068 249.104 364.016C246.261 363.604 243.943 358.957 243.509 356.421C243.509 356.261 243.372 354.229 243.349 353.258H243.177C242.373 355.744 241.792 358.297 241.442 360.886C241.225 362.314 241.099 363.684 241.019 365.021C241.921 365.169 246.032 365.866 247.711 366.962C249.39 368.058 251.069 369.806 251.206 371.838C251.25 372.314 251.195 372.794 251.043 373.248C250.891 373.701 250.645 374.117 250.323 374.47C250 374.823 249.607 375.104 249.169 375.296C248.731 375.488 248.258 375.586 247.78 375.584C244.902 375.481 242.07 371.119 241.384 368.652C241.384 368.515 241.11 367.099 240.95 366.071C240.95 366.676 240.871 367.305 240.859 367.876C240.779 370.057 240.859 372.055 240.916 373.825C240.916 374.83 241.03 375.732 241.099 376.578C241.91 377.183 245.153 379.65 246.112 381.374C247.072 383.098 247.791 385.439 246.969 387.301C246.79 387.743 246.521 388.143 246.179 388.475C245.837 388.807 245.429 389.064 244.982 389.23C244.535 389.395 244.058 389.466 243.582 389.436C243.106 389.407 242.642 389.279 242.218 389.06C239.706 387.644 239.226 382.47 239.74 379.924C239.74 379.707 240.882 376.383 240.882 376.406C240.802 375.584 240.722 374.705 240.654 373.757C240.539 371.987 240.425 369.977 240.459 367.796C240.461 365.441 240.602 363.088 240.882 360.749C241.187 358.128 241.718 355.537 242.469 353.007V352.915C241.99 353.612 240.585 355.508 240.459 355.645C238.712 357.529 234.224 360.133 231.62 358.911C231.195 358.694 230.82 358.391 230.519 358.021C230.218 357.651 229.998 357.222 229.872 356.762C229.746 356.302 229.718 355.821 229.789 355.349C229.86 354.877 230.029 354.426 230.284 354.023C231.438 352.401 233.813 351.613 235.72 351.396Z" fill="#263238"/>
<path d="M495.811 16.0366H176.884C172.551 16.0366 169.039 19.5492 169.039 23.8822V333.924C169.039 338.257 172.551 341.769 176.884 341.769H495.811C500.144 341.769 503.656 338.257 503.656 333.924V23.8822C503.656 19.5492 500.144 16.0366 495.811 16.0366Z" fill="white" stroke="#263238" stroke-linecap="round" stroke-linejoin="round"/>
<path d="M496.028 16.0366H176.69C174.663 16.0366 172.718 16.8412 171.284 18.2736C169.849 19.7061 169.042 21.6493 169.039 23.6766V37.1636H503.622V23.6766C503.619 21.6592 502.819 19.7245 501.397 18.2937C499.975 16.8629 498.045 16.0517 496.028 16.0366Z" fill="#92E3A9" stroke="#263238" stroke-linecap="round" stroke-linejoin="round"/>
<path d="M185.095 26.2347C185.098 26.8586 184.915 27.4691 184.57 27.9889C184.225 28.5088 183.733 28.9145 183.158 29.1549C182.582 29.3952 181.948 29.4592 181.336 29.3389C180.723 29.2186 180.161 28.9193 179.719 28.4789C179.277 28.0386 178.975 27.477 178.853 26.8653C178.73 26.2536 178.792 25.6192 179.03 25.0426C179.269 24.466 179.673 23.9731 180.191 23.6262C180.71 23.2794 181.32 23.0942 181.943 23.0942C182.776 23.0972 183.575 23.4287 184.165 24.0167C184.755 24.6047 185.089 25.4017 185.095 26.2347Z" fill="white" stroke="#263238" stroke-linecap="round" stroke-linejoin="round"/>
<path d="M198.308 26.2347C198.31 26.8586 198.128 27.4691 197.783 27.9889C197.438 28.5088 196.946 28.9145 196.37 29.1549C195.795 29.3952 195.161 29.4592 194.548 29.3389C193.936 29.2186 193.374 28.9193 192.932 28.4789C192.49 28.0386 192.188 27.477 192.066 26.8653C191.943 26.2536 192.005 25.6192 192.243 25.0426C192.481 24.466 192.885 23.9731 193.404 23.6262C193.923 23.2794 194.532 23.0942 195.156 23.0942C195.99 23.0942 196.79 23.4247 197.381 24.0134C197.972 24.602 198.305 25.4008 198.308 26.2347Z" fill="white" stroke="#263238" stroke-linecap="round" stroke-linejoin="round"/>
<path d="M211.521 26.2348C211.523 26.8591 211.34 27.4701 210.995 27.9902C210.649 28.5102 210.157 28.916 209.581 29.156C209.004 29.3959 208.37 29.4593 207.757 29.3381C207.145 29.2168 206.582 28.9164 206.141 28.4749C205.699 28.0334 205.399 27.4707 205.277 26.8583C205.156 26.2458 205.22 25.6111 205.46 25.0347C205.699 24.4583 206.105 23.9662 206.625 23.6207C207.145 23.2752 207.756 23.092 208.381 23.0943C209.213 23.0973 210.01 23.4291 210.598 24.0174C211.186 24.6057 211.518 25.4028 211.521 26.2348Z" fill="white" stroke="#263238" stroke-linecap="round" stroke-linejoin="round"/>
<path d="M341.458 75.6262V54.2365H337.073V51.8269H348.493V54.2365H344.107V75.6262H341.458Z" fill="#263238"/>
<path d="M350.137 57.571C350.137 53.928 351.942 51.5869 355.573 51.5869C359.205 51.5869 361.055 53.8709 361.055 57.571V69.8703C361.055 73.479 359.25 75.8544 355.573 75.8544C351.896 75.8544 350.137 73.479 350.137 69.8703V57.571ZM352.752 70.0074C352.752 72.1886 353.677 73.4334 355.573 73.4334C357.469 73.4334 358.394 72.1772 358.394 70.0074V57.4454C358.394 55.2984 357.515 54.0194 355.573 54.0194C353.632 54.0194 352.752 55.3098 352.752 57.4454V70.0074Z" fill="#263238"/>
<path d="M369.14 51.8269C372.84 51.8269 374.542 54.1109 374.542 57.7425V69.7449C374.542 73.3764 372.84 75.6262 369.14 75.6262H363.567V51.8269H369.14ZM369.14 73.2051C371.047 73.2051 371.961 72.0631 371.961 69.8477V57.6054C371.961 55.4242 371.047 54.2365 369.106 54.2365H366.251V73.2051H369.14Z" fill="#263238"/>
<path d="M379.669 70.8298L378.756 75.6262H376.312L380.88 51.8269H384.717L389.285 75.6262H386.635L385.71 70.8298H379.669ZM380.012 68.5458H385.322L382.627 54.8418L380.012 68.5458Z" fill="#263238"/>
<path d="M393.887 67.084L388.851 51.8269H391.603L395.315 63.521L399.049 51.8269H401.561L396.502 67.084V75.6262H393.887V67.084Z" fill="#263238"/>
<path d="M271.339 90.3921V90.769C271.405 91.2742 271.308 91.7873 271.061 92.2332C270.815 92.6791 270.432 93.0344 269.969 93.2471C270.437 93.4685 270.823 93.8339 271.07 94.2899C271.316 94.746 271.411 95.2689 271.339 95.7824V96.6731C271.339 97.4303 271.038 98.1565 270.503 98.6919C269.968 99.2273 269.241 99.5281 268.484 99.5281C267.727 99.5281 267.001 99.2273 266.465 98.6919C265.93 98.1565 265.629 97.4303 265.629 96.6731V95.7824C265.556 95.2659 265.652 94.7396 265.903 94.2824C266.154 93.8252 266.547 93.4619 267.022 93.2471C266.552 93.0426 266.161 92.6897 265.909 92.2423C265.658 91.7949 265.559 91.2775 265.629 90.769V90.3921C265.629 89.6349 265.93 88.9087 266.465 88.3733C267.001 87.8379 267.727 87.5371 268.484 87.5371C269.241 87.5371 269.968 87.8379 270.503 88.3733C271.038 88.9087 271.339 89.6349 271.339 90.3921ZM267 90.3921V90.9745C267 92.1165 267.559 92.6647 268.507 92.6647C269.455 92.6647 270.014 92.1394 270.014 90.9745V90.3921C270.014 89.1587 269.455 88.5992 268.507 88.5992C267.559 88.5992 267 89.193 267 90.4264V90.3921ZM267 95.5882V96.6046C267 97.838 267.548 98.4204 268.507 98.4204C269.466 98.4204 270.003 97.838 270.014 96.6046V95.5882C270.014 94.4462 269.501 93.8638 268.507 93.8638C267.513 93.8638 267 94.4576 267 95.6225V95.5882Z" fill="#263238"/>
<path d="M273.84 91.3516V93.0189H272.55V91.3516H273.84ZM273.84 97.8952V99.5511H272.55V97.8952H273.84Z" fill="#263238"/>
<path d="M275.108 90.4494C275.108 88.6108 276.021 87.4231 277.86 87.4231C279.699 87.4231 280.612 88.5651 280.612 90.4494V96.639C280.612 98.4776 279.71 99.6768 277.86 99.6768C276.01 99.6768 275.108 98.4776 275.108 96.639V90.4494ZM276.433 96.719C276.433 97.861 276.889 98.4548 277.86 98.4548C278.831 98.4548 279.276 97.8039 279.276 96.719V90.3809C279.276 89.2389 278.831 88.6336 277.86 88.6336C276.889 88.6336 276.433 89.2846 276.433 90.3809V96.719Z" fill="#263238"/>
<path d="M281.777 90.4494C281.777 88.6108 282.691 87.4231 284.529 87.4231C286.368 87.4231 287.281 88.5651 287.281 90.4494V96.639C287.281 98.4776 286.379 99.6768 284.529 99.6768C282.679 99.6768 281.777 98.4776 281.777 96.639V90.4494ZM283.102 96.719C283.102 97.861 283.559 98.4548 284.529 98.4548C285.5 98.4548 285.945 97.8039 285.945 96.719V90.3809C285.945 89.2389 285.5 88.6336 284.529 88.6336C283.559 88.6336 283.102 89.2846 283.102 90.3809V96.719Z" fill="#263238"/>
<path d="M301.271 89.7298C300.766 90.0358 300.193 90.2123 299.604 90.2437V89.1017C300.078 89.1136 300.542 88.9608 300.917 88.6694C301.292 88.3779 301.554 87.9658 301.659 87.5029H302.63V99.5054H301.305L301.271 89.7298Z" fill="#263238"/>
<path d="M304.514 90.4494C304.514 88.6108 305.416 87.4231 307.255 87.4231C309.094 87.4231 310.019 88.5651 310.019 90.4494V96.639C310.019 98.4776 309.105 99.6768 307.255 99.6768C305.405 99.6768 304.514 98.4776 304.514 96.639V90.4494ZM305.828 96.719C305.828 97.861 306.296 98.4548 307.255 98.4548C308.214 98.4548 308.683 97.8039 308.683 96.719V90.3809C308.683 89.2389 308.237 88.6336 307.255 88.6336C306.273 88.6336 305.828 89.2846 305.828 90.3809V96.719Z" fill="#263238"/>
<path d="M312.565 91.3516V93.0189H311.286V91.3516H312.565ZM312.565 97.8952V99.5511H311.286V97.8952H312.565Z" fill="#263238"/>
<path d="M313.844 90.4494C313.844 88.6108 314.747 87.4231 316.585 87.4231C318.424 87.4231 319.349 88.5651 319.349 90.4494V96.639C319.349 98.4776 318.435 99.6768 316.585 99.6768C314.735 99.6768 313.844 98.4776 313.844 96.639V90.4494ZM315.158 96.719C315.158 97.861 315.626 98.4548 316.585 98.4548C317.544 98.4548 318.013 97.8039 318.013 96.719V90.3809C318.013 89.2389 317.556 88.6336 316.585 88.6336C315.615 88.6336 315.158 89.2846 315.158 90.3809V96.719Z" fill="#263238"/>
<path d="M320.514 90.4494C320.514 88.6108 321.416 87.4231 323.254 87.4231C325.093 87.4231 326.018 88.5651 326.018 90.4494V96.639C326.018 98.4776 325.105 99.6768 323.254 99.6768C321.404 99.6768 320.514 98.4776 320.514 96.639V90.4494ZM321.827 96.719C321.827 97.861 322.295 98.4548 323.254 98.4548C324.214 98.4548 324.682 97.8039 324.682 96.719V90.3809C324.682 89.2389 324.237 88.6336 323.254 88.6336C322.272 88.6336 321.827 89.2846 321.827 90.3809V96.719Z" fill="#263238"/>
<path d="M340.853 89.7298C340.348 90.0358 339.775 90.2123 339.185 90.2437V89.1017C339.66 89.1136 340.124 88.9608 340.499 88.6694C340.873 88.3779 341.136 87.9658 341.241 87.5029H342.177V99.5054H340.853V89.7298Z" fill="#263238"/>
<path d="M349.6 90.4609C349.6 94.081 345.535 95.3829 345.512 98.1465V98.3407H349.452V99.5512H344.199V98.5234C344.199 94.652 348.264 93.8983 348.264 90.5294C348.264 89.296 347.853 88.6451 346.848 88.6451C345.843 88.6451 345.444 89.3417 345.444 90.4038V91.4658H344.199V90.4951C344.199 88.6565 345.032 87.4346 346.894 87.4346C348.755 87.4346 349.6 88.6337 349.6 90.4609Z" fill="#263238"/>
<path d="M352.124 91.3516V93.0189H350.834V91.3516H352.124ZM352.124 97.8952V99.5511H350.834V97.8952H352.124Z" fill="#263238"/>
<path d="M353.392 90.4494C353.392 88.6108 354.294 87.4231 356.133 87.4231C357.971 87.4231 358.896 88.5651 358.896 90.4494V96.639C358.896 98.4776 357.983 99.6768 356.133 99.6768C354.283 99.6768 353.392 98.4776 353.392 96.639V90.4494ZM354.705 96.719C354.705 97.861 355.173 98.4548 356.133 98.4548C357.092 98.4548 357.56 97.8039 357.56 96.719V90.3809C357.56 89.2389 357.103 88.6336 356.133 88.6336C355.162 88.6336 354.705 89.2846 354.705 90.3809V96.719Z" fill="#263238"/>
<path d="M360.061 90.4494C360.061 88.6108 360.963 87.4231 362.802 87.4231C364.641 87.4231 365.566 88.5651 365.566 90.4494V96.639C365.566 98.4776 364.652 99.6768 362.802 99.6768C360.952 99.6768 360.061 98.4776 360.061 96.639V90.4494ZM361.374 96.719C361.374 97.861 361.843 98.4548 362.802 98.4548C363.761 98.4548 364.229 97.8039 364.229 96.719V90.3809C364.229 89.2389 363.784 88.6336 362.802 88.6336C361.82 88.6336 361.374 89.2846 361.374 90.3809V96.719Z" fill="#263238"/>
<path d="M384.854 90.4609C384.854 94.081 380.788 95.3829 380.766 98.1465V98.3407H384.717V99.5512H379.452V98.5234C379.452 94.652 383.506 93.8983 383.506 90.5294C383.506 89.296 383.095 88.6451 382.102 88.6451C381.108 88.6451 380.697 89.3417 380.697 90.4038V91.4658H379.452V90.4951C379.452 88.6565 380.286 87.4346 382.136 87.4346C383.986 87.4346 384.854 88.6337 384.854 90.4609Z" fill="#263238"/>
<path d="M387.366 91.3516V93.0189H386.087V91.3516H387.366ZM387.366 97.8952V99.5511H386.087V97.8952H387.366Z" fill="#263238"/>
<path d="M388.634 90.4494C388.634 88.6108 389.548 87.4231 391.386 87.4231C393.225 87.4231 394.138 88.5651 394.138 90.4494V96.639C394.138 98.4776 393.236 99.6768 391.386 99.6768C389.536 99.6768 388.634 98.4776 388.634 96.639V90.4494ZM389.959 96.719C389.959 97.861 390.427 98.4548 391.386 98.4548C392.345 98.4548 392.802 97.8039 392.802 96.719V90.3809C392.802 89.2389 392.357 88.6336 391.386 88.6336C390.415 88.6336 389.959 89.2846 389.959 90.3809V96.719Z" fill="#263238"/>
<path d="M395.303 90.4494C395.303 88.6108 396.217 87.4231 398.056 87.4231C399.894 87.4231 400.819 88.5651 400.819 90.4494V96.639C400.819 98.4776 399.906 99.6768 398.056 99.6768C396.205 99.6768 395.303 98.4776 395.303 96.639V90.4494ZM396.628 96.719C396.628 97.861 397.096 98.4548 398.056 98.4548C399.015 98.4548 399.472 97.8039 399.472 96.719V90.3809C399.472 89.2389 399.026 88.6336 398.056 88.6336C397.085 88.6336 396.628 89.2846 396.628 90.3809V96.719Z" fill="#263238"/>
<path d="M422.437 97.1302V99.5512H421.124V97.1302H417.253V95.9197L420.975 87.5488H422.437V95.9197H423.396V97.1302H422.437ZM418.486 95.9197H421.124V90.0041L418.486 95.9197Z" fill="#263238"/>
<path d="M425.703 91.3516V93.0189H424.424V91.3516H425.703ZM425.703 97.8952V99.5511H424.424V97.8952H425.703Z" fill="#263238"/>
<path d="M426.971 90.4494C426.971 88.6108 427.885 87.4231 429.723 87.4231C431.562 87.4231 432.475 88.5651 432.475 90.4494V96.639C432.475 98.4776 431.573 99.6768 429.723 99.6768C427.873 99.6768 426.971 98.4776 426.971 96.639V90.4494ZM428.296 96.719C428.296 97.861 428.764 98.4548 429.723 98.4548C430.682 98.4548 431.139 97.8039 431.139 96.719V90.3809C431.139 89.2389 430.694 88.6336 429.723 88.6336C428.752 88.6336 428.296 89.2846 428.296 90.3809V96.719Z" fill="#263238"/>
<path d="M433.652 90.4494C433.652 88.6108 434.554 87.4231 436.392 87.4231C438.231 87.4231 439.156 88.5651 439.156 90.4494V96.639C439.156 98.4776 438.242 99.6768 436.392 99.6768C434.542 99.6768 433.652 98.4776 433.652 96.639V90.4494ZM434.965 96.719C434.965 97.861 435.433 98.4548 436.392 98.4548C437.352 98.4548 437.82 97.8039 437.82 96.719V90.3809C437.82 89.2389 437.363 88.6336 436.392 88.6336C435.422 88.6336 434.965 89.2846 434.965 90.3809V96.719Z" fill="#263238"/>
<path d="M463.264 90.4265V90.655H462.008V90.3466C462.008 89.2046 461.562 88.6336 460.591 88.6336C459.621 88.6336 459.13 89.2846 459.13 90.5636V93.2587C459.268 92.8614 459.533 92.5202 459.884 92.2873C460.234 92.0543 460.651 91.9423 461.071 91.9683C462.613 91.9683 463.298 93.1103 463.298 94.8233V96.639C463.298 98.4776 462.384 99.6768 460.546 99.6768C458.707 99.6768 457.794 98.4776 457.794 96.639V90.5179C457.794 88.6108 458.65 87.4231 460.546 87.4231C462.441 87.4231 463.264 88.5993 463.264 90.4265ZM459.084 94.926V96.719C459.084 97.861 459.529 98.4548 460.5 98.4548C461.471 98.4548 461.928 97.8039 461.928 96.719V94.926C461.928 93.8411 461.471 93.1902 460.5 93.1902C459.529 93.1902 459.084 93.8411 459.084 94.926Z" fill="#263238"/>
<path d="M465.833 91.3516V93.0189H464.543V91.3516H465.833ZM465.833 97.8952V99.5511H464.543V97.8952H465.833Z" fill="#263238"/>
<path d="M467.078 90.4494C467.078 88.6108 467.992 87.4231 469.819 87.4231C471.646 87.4231 472.582 88.5651 472.582 90.4494V96.639C472.582 98.4776 471.68 99.6768 469.819 99.6768C467.957 99.6768 467.078 98.4776 467.078 96.639V90.4494ZM468.403 96.719C468.403 97.861 468.859 98.4548 469.819 98.4548C470.778 98.4548 471.246 97.8039 471.246 96.719V90.3809C471.246 89.2389 470.801 88.6336 469.819 88.6336C468.837 88.6336 468.403 89.2846 468.403 90.3809V96.719Z" fill="#263238"/>
<path d="M473.77 90.4494C473.77 88.6108 474.684 87.4231 476.522 87.4231C478.361 87.4231 479.274 88.5651 479.274 90.4494V96.639C479.274 98.4776 478.372 99.6768 476.522 99.6768C474.672 99.6768 473.77 98.4776 473.77 96.639V90.4494ZM475.095 96.719C475.095 97.861 475.552 98.4548 476.522 98.4548C477.493 98.4548 477.938 97.8039 477.938 96.719V90.3809C477.938 89.2389 477.493 88.6336 476.522 88.6336C475.552 88.6336 475.095 89.2846 475.095 90.3809V96.719Z" fill="#263238"/>
<path d="M296.36 233.382H259.794V267.836H296.36V233.382Z" stroke="#ADADAD" stroke-miterlimit="10"/>
<path d="M333.989 233.382H297.422V267.836H333.989V233.382Z" stroke="#ADADAD" stroke-miterlimit="10"/>
<path d="M371.618 233.382H335.051V267.836H371.618V233.382Z" stroke="#ADADAD" stroke-miterlimit="10"/>
<path d="M409.258 233.382H372.692V267.836H409.258V233.382Z" stroke="#ADADAD" stroke-miterlimit="10"/>
<path d="M446.887 233.382H410.321V267.836H446.887V233.382Z" stroke="#ADADAD" stroke-miterlimit="10"/>
<path d="M484.676 233.382H448.109V267.836H484.676V233.382Z" stroke="#ADADAD" stroke-miterlimit="10"/>
<path d="M184.604 106.792H243.817" stroke="#ADADAD" stroke-miterlimit="10"/>
<path d="M184.604 113.289H243.817" stroke="#ADADAD" stroke-miterlimit="10"/>
<path d="M184.604 119.776H243.817" stroke="#ADADAD" stroke-miterlimit="10"/>
<path d="M184.604 126.262H243.817" stroke="#ADADAD" stroke-miterlimit="10"/>
<path d="M184.604 132.749H243.817" stroke="#ADADAD" stroke-miterlimit="10"/>
<path d="M184.604 139.247H243.817" stroke="#ADADAD" stroke-miterlimit="10"/>
<path d="M184.604 145.733H243.817" stroke="#ADADAD" stroke-miterlimit="10"/>
<path d="M184.604 152.22H243.817" stroke="#ADADAD" stroke-miterlimit="10"/>
<path d="M184.604 251.323H243.817" stroke="#ADADAD" stroke-miterlimit="10"/>
<path d="M184.604 257.81H243.817" stroke="#ADADAD" stroke-miterlimit="10"/>
<path d="M184.604 264.296H243.817" stroke="#ADADAD" stroke-miterlimit="10"/>
<path d="M184.604 270.782H243.817" stroke="#ADADAD" stroke-miterlimit="10"/>
<path d="M184.604 277.281H243.817" stroke="#ADADAD" stroke-miterlimit="10"/>
<path d="M184.604 283.767H243.817" stroke="#ADADAD" stroke-miterlimit="10"/>
<path d="M184.604 290.254H243.817" stroke="#ADADAD" stroke-miterlimit="10"/>
<path d="M184.604 296.74H243.817" stroke="#ADADAD" stroke-miterlimit="10"/>
<path d="M296.36 106.826H259.794V141.28H296.36V106.826Z" stroke="#ADADAD" stroke-miterlimit="10"/>
<path d="M333.989 106.826H297.422V141.28H333.989V106.826Z" fill="#92E3A9" stroke="#ADADAD" stroke-miterlimit="10"/>
<path d="M371.618 106.826H335.051V141.28H371.618V106.826Z" fill="#92E3A9" stroke="#ADADAD" stroke-miterlimit="10"/>
<path d="M409.258 106.826H372.692V141.28H409.258V106.826Z" stroke="#ADADAD" stroke-miterlimit="10"/>
<path d="M446.887 106.826H410.321V141.28H446.887V106.826Z" stroke="#ADADAD" stroke-miterlimit="10"/>
<path d="M484.676 106.826H448.109V141.28H484.676V106.826Z" stroke="#ADADAD" stroke-miterlimit="10"/>
<path d="M303.84 116.647H329.41" stroke="#ADADAD" stroke-miterlimit="10"/>
<path d="M303.84 120.541H329.41" stroke="#ADADAD" stroke-miterlimit="10"/>
<path d="M303.84 124.435H329.41" stroke="#ADADAD" stroke-miterlimit="10"/>
<path d="M303.84 128.318H329.41" stroke="#ADADAD" stroke-miterlimit="10"/>
<path d="M303.84 132.212H329.41" stroke="#ADADAD" stroke-miterlimit="10"/>
<path d="M296.36 148.977H259.794V183.431H296.36V148.977Z" stroke="#ADADAD" stroke-miterlimit="10"/>
<path d="M333.989 148.977H297.422V183.431H333.989V148.977Z" fill="#92E3A9" stroke="#ADADAD" stroke-miterlimit="10"/>
<path d="M371.618 148.977H335.051V183.431H371.618V148.977Z" stroke="#ADADAD" stroke-miterlimit="10"/>
<path d="M409.258 148.977H372.692V183.431H409.258V148.977Z" stroke="#ADADAD" stroke-miterlimit="10"/>
<path d="M446.887 148.977H410.321V183.431H446.887V148.977Z" stroke="#ADADAD" stroke-miterlimit="10"/>
<path d="M484.676 148.977H448.109V183.431H484.676V148.977Z" stroke="#ADADAD" stroke-miterlimit="10"/>
<path d="M303.84 158.341H329.41" stroke="#ADADAD" stroke-miterlimit="10"/>
<path d="M303.84 162.224H329.41" stroke="#ADADAD" stroke-miterlimit="10"/>
<path d="M303.84 166.118H329.41" stroke="#ADADAD" stroke-miterlimit="10"/>
<path d="M303.84 170.012H329.41" stroke="#ADADAD" stroke-miterlimit="10"/>
<path d="M303.84 173.907H329.41" stroke="#ADADAD" stroke-miterlimit="10"/>
<path d="M296.36 191.117H259.794V225.571H296.36V191.117Z" stroke="#ADADAD" stroke-miterlimit="10"/>
<path d="M333.989 191.117H297.422V225.571H333.989V191.117Z" stroke="#ADADAD" stroke-miterlimit="10"/>
<path d="M371.618 191.117H335.051V225.571H371.618V191.117Z" stroke="#ADADAD" stroke-miterlimit="10"/>
<path d="M409.258 191.117H372.692V225.571H409.258V191.117Z" stroke="#ADADAD" stroke-miterlimit="10"/>
<path d="M446.887 191.117H410.321V225.571H446.887V191.117Z" fill="#92E3A9" stroke="#ADADAD" stroke-miterlimit="10"/>
<path d="M484.676 191.117H448.109V225.571H484.676V191.117Z" stroke="#ADADAD" stroke-miterlimit="10"/>
<path d="M417.23 200.584H442.799" stroke="#ADADAD" stroke-miterlimit="10"/>
<path d="M417.23 204.478H442.799" stroke="#ADADAD" stroke-miterlimit="10"/>
<path d="M417.23 208.361H442.799" stroke="#ADADAD" stroke-miterlimit="10"/>
<path d="M417.23 212.255H442.799" stroke="#ADADAD" stroke-miterlimit="10"/>
<path d="M417.23 216.149H442.799" stroke="#ADADAD" stroke-miterlimit="10"/>
<path d="M296.36 275.636H259.794V310.09H296.36V275.636Z" stroke="#ADADAD" stroke-miterlimit="10"/>
<path d="M333.989 275.636H297.422V310.09H333.989V275.636Z" stroke="#ADADAD" stroke-miterlimit="10"/>
<path d="M371.618 275.636H335.051V310.09H371.618V275.636Z" fill="#92E3A9" stroke="#ADADAD" stroke-miterlimit="10"/>
<path d="M409.258 275.636H372.692V310.09H409.258V275.636Z" fill="#92E3A9" stroke="#ADADAD" stroke-miterlimit="10"/>
<path d="M446.887 275.636H410.321V310.09H446.887V275.636Z" fill="#92E3A9" stroke="#ADADAD" stroke-miterlimit="10"/>
<path d="M484.676 275.636H448.109V310.09H484.676V275.636Z" stroke="#ADADAD" stroke-miterlimit="10"/>
<path d="M341.081 285.069H366.65" stroke="#ADADAD" stroke-miterlimit="10"/>
<path d="M341.081 288.963H366.65" stroke="#ADADAD" stroke-miterlimit="10"/>
<path d="M341.081 292.857H366.65" stroke="#ADADAD" stroke-miterlimit="10"/>
<path d="M341.081 296.74H366.65" stroke="#ADADAD" stroke-miterlimit="10"/>
<path d="M341.081 300.634H366.65" stroke="#ADADAD" stroke-miterlimit="10"/>
<path d="M378.322 285.069H403.891" stroke="#ADADAD" stroke-miterlimit="10"/>
<path d="M378.322 288.963H403.891" stroke="#ADADAD" stroke-miterlimit="10"/>
<path d="M378.322 292.857H403.891" stroke="#ADADAD" stroke-miterlimit="10"/>
<path d="M378.322 296.74H403.891" stroke="#ADADAD" stroke-miterlimit="10"/>
<path d="M378.322 300.634H403.891" stroke="#ADADAD" stroke-miterlimit="10"/>
<path d="M415.562 285.069H441.132" stroke="#ADADAD" stroke-miterlimit="10"/>
<path d="M415.562 288.963H441.132" stroke="#ADADAD" stroke-miterlimit="10"/>
<path d="M415.562 292.857H441.132" stroke="#ADADAD" stroke-miterlimit="10"/>
<path d="M415.562 296.74H441.132" stroke="#ADADAD" stroke-miterlimit="10"/>
<path d="M415.562 300.634H441.132" stroke="#ADADAD" stroke-miterlimit="10"/>
<path d="M138.041 24.5263C128.025 17.0508 114.824 17.8418 106.897 22.844C98.9701 27.8463 96.5158 36.8482 94.2935 43.0092C89.8712 55.2642 80.3743 62.5504 70.0924 69.6249C60.1421 76.4989 47.2179 86.5703 54.0393 100.307C57.1239 106.535 60.9824 110.813 55.1449 120.929C49.3074 131.045 43.1715 135.724 47.4058 145.439C51.6402 155.154 57.0576 170.35 79.8436 164.902C102.63 159.454 109.584 133.373 111.905 123.681C114.227 113.988 125.382 110.011 133.531 103.048C141.679 96.0847 140.872 85.1442 138.55 78.1477C136.781 72.7778 134.791 65.1351 140.883 59.0521L141.679 59.2972C141.679 59.2972 153.918 53.7268 155.952 50.3288C157.986 46.9308 148.047 31.9908 138.041 24.5263Z" fill="#263238" stroke="#263238" stroke-linecap="round" stroke-linejoin="round"/>
<path d="M155.863 90.2134C155.863 90.2134 179.7 108.763 185.913 112.674C192.126 116.584 207.173 123.904 210.534 126.522C213.895 129.14 208.721 140.359 201.469 144.537C194.216 148.715 187.472 144.013 183.591 141.919C179.711 139.824 153.741 122.856 153.741 122.856L155.863 90.2134Z" fill="#919191" stroke="#263238" stroke-linecap="round" stroke-linejoin="round"/>
<path d="M161.181 101.254L157.135 124.639L166.344 106.078" stroke="#263238" stroke-linecap="round" stroke-linejoin="round"/>
<path d="M163.868 212.196C163.868 212.196 157.654 212.452 150.601 205.923C143.547 199.395 141.756 196.52 141.756 196.52C141.756 196.52 138.174 160.201 138.174 156.803C138.174 153.405 141.071 136.437 143.702 128.081C146.333 119.726 151.22 129.652 151.22 129.652C151.22 129.652 157.179 188.142 158.218 193.891C159.258 199.64 163.868 212.196 163.868 212.196Z" fill="#787878" stroke="#263238" stroke-linecap="round" stroke-linejoin="round"/>
<path d="M143.061 276.29C143.061 276.29 135.985 294.026 135.709 302.593C135.432 311.161 137.179 324.084 130.623 338.579C124.067 353.073 117.92 374.319 116.892 380.814C115.863 387.309 121.756 405.09 124.808 410.895C127.859 416.699 126.665 416.264 123.426 416.153C121.005 416.158 118.626 415.519 116.529 414.3C114.433 413.082 112.693 411.326 111.485 409.212C108.036 403.374 109.363 399.742 107.063 397.626L104.697 395.498L102.663 408.098L99.8325 407.597L102.409 391.342C102.409 391.342 102.121 387.655 103.791 386.073C105.46 384.491 108.058 379.678 108.058 379.678C108.058 379.678 110.844 356.894 110.148 341.342C109.451 325.789 108.965 315.974 110.8 309.501C112.635 303.028 112.701 300.978 112.923 294.449C113.144 287.921 112.989 280.155 113.022 278.93C113.055 277.704 143.061 276.29 143.061 276.29Z" fill="white"/>
<mask id="mask0_97_24" style="mask-type:luminance" maskUnits="userSpaceOnUse" x="99" y="276" width="45" height="141">
<path d="M143.061 276.29C143.061 276.29 135.985 294.026 135.709 302.593C135.432 311.161 137.179 324.084 130.623 338.579C124.067 353.073 117.92 374.319 116.892 380.814C115.863 387.309 121.756 405.09 124.808 410.895C127.859 416.699 126.665 416.264 123.426 416.153C121.005 416.158 118.626 415.519 116.529 414.3C114.433 413.082 112.693 411.326 111.485 409.212C108.036 403.374 109.363 399.742 107.063 397.626L104.697 395.498L102.663 408.098L99.8325 407.597L102.409 391.342C102.409 391.342 102.121 387.655 103.791 386.073C105.46 384.491 108.058 379.678 108.058 379.678C108.058 379.678 110.844 356.894 110.148 341.342C109.451 325.789 108.965 315.974 110.8 309.501C112.635 303.028 112.701 300.978 112.923 294.449C113.144 287.921 112.989 280.155 113.022 278.93C113.055 277.704 143.061 276.29 143.061 276.29Z" fill="white"/>
</mask>
<g mask="url(#mask0_97_24)">
<path opacity="0.2" d="M112.967 278.952C112.967 279.844 112.967 284.255 112.967 289.113C116.494 289.848 125.128 290.829 139.136 287.308C141.06 281.314 143.061 276.29 143.061 276.29C143.061 276.29 113.011 277.727 112.967 278.952Z" fill="black"/>
</g>
<path d="M143.061 276.29C143.061 276.29 135.985 294.026 135.709 302.593C135.432 311.161 137.179 324.084 130.623 338.579C124.067 353.073 117.92 374.319 116.892 380.814C115.863 387.309 121.756 405.09 124.808 410.895C127.859 416.699 126.665 416.264 123.426 416.153C121.005 416.158 118.626 415.519 116.529 414.3C114.433 413.082 112.693 411.326 111.485 409.212C108.036 403.374 109.363 399.742 107.063 397.626L104.697 395.498L102.663 408.098L99.8325 407.597L102.409 391.342C102.409 391.342 102.121 387.655 103.791 386.073C105.46 384.49 108.058 379.678 108.058 379.678C108.058 379.678 110.844 356.894 110.148 341.342C109.451 325.789 108.965 315.974 110.8 309.501C112.635 303.028 112.701 300.978 112.923 294.449C113.144 287.921 112.989 280.155 113.022 278.93C113.055 277.704 143.061 276.29 143.061 276.29Z" stroke="#263238" stroke-linecap="round" stroke-linejoin="round"/>
<path d="M124.808 410.917L124.487 410.271C117.544 412.365 114.537 405.302 110.944 396.902C109.227 392.867 106.924 389.112 104.111 385.761C103.978 385.894 103.857 386.028 103.735 386.139C102.066 387.721 102.353 391.409 102.353 391.409L99.7772 407.664L102.608 408.165L104.642 395.565L107.008 397.693C109.363 399.809 108.036 403.441 111.43 409.279C112.637 411.393 114.377 413.148 116.474 414.367C118.571 415.586 120.95 416.225 123.37 416.22C126.665 416.287 127.859 416.732 124.808 410.917Z" fill="#92E3A9" stroke="#263238" stroke-linecap="round" stroke-linejoin="round"/>
<path d="M99.2023 400.656L99.6224 415.395L101.646 415.462L102.729 404.444L99.2023 400.656Z" fill="#92E3A9" stroke="#263238" stroke-linecap="round" stroke-linejoin="round"/>
<path d="M87.6048 273.604C87.6048 273.604 92.1377 283.553 88.3897 298.961C84.6418 314.369 88.2902 338.59 93.9176 353.897C99.5451 369.205 99.0254 383.075 99.733 386.362C100.441 389.649 99.0033 396.144 99.2576 400.656C99.5119 405.168 106.997 412.766 108.5 415.262C110.004 417.757 121.38 418.147 124.222 418.248C127.063 418.348 127.538 415.496 125.57 414.203C123.603 412.911 119.368 405.413 119.368 405.413C119.368 405.413 112.967 390.93 112.315 385.972C111.662 381.014 109.385 351.959 110.402 345.865C111.419 339.771 114.968 305.98 116.073 297.034C117.179 288.088 118.008 275.443 118.008 275.443L87.6048 273.604Z" fill="white"/>
<mask id="mask1_97_24" style="mask-type:luminance" maskUnits="userSpaceOnUse" x="86" y="273" width="41" height="146">
<path d="M87.6048 273.604C87.6048 273.604 92.1377 283.553 88.3897 298.961C84.6418 314.369 88.2902 338.59 93.9176 353.897C99.5451 369.205 99.0254 383.075 99.733 386.362C100.441 389.649 99.0033 396.144 99.2576 400.656C99.5119 405.168 106.997 412.766 108.5 415.262C110.004 417.757 121.38 418.147 124.222 418.248C127.063 418.348 127.538 415.496 125.57 414.203C123.603 412.911 119.368 405.413 119.368 405.413C119.368 405.413 112.967 390.93 112.315 385.972C111.662 381.014 109.385 351.959 110.402 345.865C111.419 339.771 114.968 305.98 116.073 297.034C117.179 288.088 118.008 275.443 118.008 275.443L87.6048 273.604Z" fill="white"/>
</mask>
<g mask="url(#mask1_97_24)">
<path opacity="0.2" d="M116.969 288.021C117.566 281.392 117.953 275.443 117.953 275.443L87.6049 273.604C88.9588 277.112 89.7066 280.827 89.816 284.589C94.8133 286.383 103.702 288.511 116.969 288.021Z" fill="black"/>
</g>
<path d="M87.6048 273.604C87.6048 273.604 92.1377 283.553 88.3897 298.961C84.6418 314.369 88.2902 338.59 93.9176 353.897C99.5451 369.205 99.0254 383.075 99.733 386.362C100.441 389.649 99.0033 396.144 99.2576 400.656C99.5119 405.168 106.997 412.766 108.5 415.262C110.004 417.757 121.38 418.147 124.222 418.248C127.063 418.348 127.538 415.496 125.57 414.203C123.603 412.911 119.368 405.413 119.368 405.413C119.368 405.413 112.967 390.93 112.315 385.972C111.662 381.014 109.385 351.959 110.402 345.865C111.419 339.771 114.968 305.98 116.074 297.034C117.179 288.088 118.008 275.443 118.008 275.443L87.6048 273.604Z" stroke="#263238" stroke-linecap="round" stroke-linejoin="round"/>
<path d="M125.515 414.203C124.632 413.475 123.864 412.614 123.238 411.652C117.798 411.385 111.253 410.761 109.075 408.744C106.521 406.394 100.463 395.197 99.5672 393.526C99.2776 395.891 99.1556 398.274 99.2023 400.656C99.4566 405.112 106.941 412.766 108.445 415.262C109.949 417.757 121.325 418.147 124.166 418.248C127.008 418.348 127.494 415.496 125.515 414.203Z" fill="#92E3A9" stroke="#263238" stroke-linecap="round" stroke-linejoin="round"/>
<path d="M82.4969 161.504C82.4969 161.504 68.5113 203.84 69.5395 222.089C70.5677 240.338 80.9491 276.412 80.9491 276.412C80.9491 276.412 104.266 282.673 120.85 282.673C131.42 282.538 141.907 280.776 151.95 277.448C151.95 277.448 160.241 218.401 156.615 197.545C154.332 184.813 149.383 172.716 142.099 162.061L82.4969 161.504Z" fill="#263238" stroke="#263238" stroke-linecap="round" stroke-linejoin="round"/>
<path d="M94.4262 88.6537C94.4262 88.6537 107.892 82.6487 114.636 82.6487C121.38 82.6487 136.14 94.135 138.473 96.2295C140.805 98.324 149.097 122.077 150.391 128.605C151.684 135.134 142.099 163.855 142.099 163.855C142.099 163.855 124.741 167.509 111.784 166.997C98.8264 166.484 93.1217 164.902 93.1217 164.902C93.1217 164.902 87.9475 138.788 85.3826 123.38C82.8176 107.972 79.9431 97.7558 82.2759 93.8788C84.6087 90.0017 94.4262 88.6537 94.4262 88.6537Z" fill="white"/>
<mask id="mask2_97_24" style="mask-type:luminance" maskUnits="userSpaceOnUse" x="81" y="82" width="70" height="86">
<path d="M94.4262 88.6537C94.4262 88.6537 107.892 82.6487 114.636 82.6487C121.38 82.6487 136.14 94.135 138.473 96.2295C140.805 98.324 149.097 122.077 150.391 128.605C151.684 135.134 142.099 163.855 142.099 163.855C142.099 163.855 124.741 167.509 111.784 166.997C98.8264 166.484 93.1217 164.902 93.1217 164.902C93.1217 164.902 87.9475 138.788 85.3826 123.38C82.8176 107.972 79.9431 97.7558 82.2759 93.8788C84.6087 90.0017 94.4262 88.6537 94.4262 88.6537Z" fill="white"/>
</mask>
<g mask="url(#mask2_97_24)">
<path opacity="0.3" d="M142.099 163.855C142.099 163.855 151.695 135.134 150.391 128.605C149.086 122.076 140.805 98.3128 138.473 96.2295C137.765 95.5833 135.886 94.0681 133.431 92.2744L131.762 94.7143C131.762 94.7143 140.385 119.726 140.673 129.43C140.949 138.487 132.934 162.518 131.828 165.615C137.798 164.769 142.099 163.855 142.099 163.855Z" fill="black"/>
</g>
<path d="M94.4262 88.6537C94.4262 88.6537 107.892 82.6487 114.636 82.6487C121.38 82.6487 136.14 94.135 138.473 96.2295C140.805 98.324 149.097 122.077 150.391 128.605C151.684 135.134 142.099 163.855 142.099 163.855C142.099 163.855 124.741 167.509 111.784 166.997C98.8264 166.484 93.1217 164.902 93.1217 164.902C93.1217 164.902 87.9475 138.788 85.3826 123.38C82.8176 107.972 79.9431 97.7558 82.2759 93.8788C84.6087 90.0017 94.4262 88.6537 94.4262 88.6537Z" stroke="#263238" stroke-linecap="round" stroke-linejoin="round"/>
<path d="M126.809 86.5591C126.809 86.5591 140.286 110.846 144.177 125.998C148.069 141.15 154.537 204.597 157.389 207.472C159.321 209.335 161.502 210.917 163.868 212.173C163.868 212.173 156.129 169.348 156.129 156.547C156.129 143.746 158.207 93.6113 156.903 90.7369C155.598 87.8626 151.209 89.4334 142.132 88.3862C133.055 87.3389 126.809 86.5591 126.809 86.5591Z" fill="#919191" stroke="#263238" stroke-linecap="round" stroke-linejoin="round"/>
<path d="M104.664 81.3118L61.5463 97.7892C61.5463 97.7892 63.0941 148.447 63.6137 154.976C64.1334 161.504 66.7315 164.902 70.3578 167.509C73.9841 170.116 75.2776 166.997 75.2776 166.997C75.2776 166.997 68.025 194.415 63.6137 203.762C59.2025 213.109 61.5463 213.689 61.5463 213.689C61.5463 213.689 78.3843 220.997 90.5678 217.087C102.751 213.176 106.378 204.286 106.378 204.286L99.6004 124.182C99.6004 124.182 99.6004 101.198 100.894 95.9732C102.187 90.7481 104.664 81.3118 104.664 81.3118Z" fill="#919191" stroke="#263238" stroke-linecap="round" stroke-linejoin="round"/>
<path d="M74.2715 180.678C74.2715 180.678 87.1626 181.046 94.8906 178.082V182.906C89.1561 183.685 83.3745 184.058 77.5882 184.02" stroke="#263238" stroke-linecap="round" stroke-linejoin="round"/>
<path d="M70.5898 97.9119C70.5898 97.9119 82.0105 105.711 85.6921 117.966" stroke="#263238" stroke-linecap="round" stroke-linejoin="round"/>
<path d="M104.664 81.3119C103.51 82.2641 102.454 83.3317 101.513 84.4982C100.031 86.3587 95.985 94.9595 93.5417 97.5665C91.0983 100.173 92.4361 100.742 93.3648 100.563C94.2935 100.385 103.182 97.2211 104.852 96.4524C106.246 95.8754 107.67 95.377 109.119 94.9595L122.464 108.217L126.178 94.7701C126.178 94.7701 140.076 95.8842 141.745 96.0736C143.414 96.263 144.708 95.3272 143.414 95.3272C142.121 95.3272 131.364 89.9127 129.882 89.1662C128.401 88.4198 126.355 83.93 121.911 80.9442C117.466 77.9584 107.826 77.0226 104.664 81.3119Z" fill="white" stroke="#263238" stroke-linecap="round" stroke-linejoin="round"/>
<path d="M123.392 85.8016L122.464 108.217C122.464 108.217 108.931 91.0267 107.218 88.9768C106.04 87.2263 105.221 85.2568 104.808 83.1835L106.289 63.7537C106.289 63.7537 115.001 77.9584 117.234 79.4513C119.468 80.9442 123.204 83.9299 123.392 85.8016Z" fill="white" stroke="#263238" stroke-linecap="round" stroke-linejoin="round"/>
<path d="M117.279 79.4513C115.067 77.9584 106.333 63.7537 106.333 63.7537L105.228 78.3038C106.93 81.7686 120.009 89.5227 122.187 89.8792C122.527 89.9426 122.87 89.9799 123.215 89.9906L123.392 85.8016C123.204 83.9299 119.501 80.9442 117.279 79.4513Z" fill="#263238" stroke="#263238" stroke-linecap="round" stroke-linejoin="round"/>
<path d="M139.335 40.2129C139.335 40.2129 119.501 51.9889 113.564 54.7853L110.247 55.7211C110.247 55.7211 105.98 49.5602 103.934 50.8636C101.889 52.1671 100.783 55.5317 101.9 58.5286C102.891 60.633 104.417 62.4356 106.322 63.7537C106.322 63.7537 106.51 72.7222 107.815 76.0868C109.119 79.4513 122.696 87.484 124.907 87.8516C127.118 88.2193 129.175 87.8516 130.291 85.8017C131.408 83.7517 138.439 75.3403 141.59 63.7537C144.741 52.1671 142.862 42.0846 139.335 40.2129Z" fill="white" stroke="#263238" stroke-linecap="round" stroke-linejoin="round"/>
<path d="M134.891 59.0857L135.443 69.9258L129.506 68.6112" stroke="#263238" stroke-linecap="round" stroke-linejoin="round"/>
<path d="M122.099 69.9258C122.099 69.9258 123.393 71.5969 128.732 73.4686" stroke="#263238" stroke-linecap="round" stroke-linejoin="round"/>
<path d="M121.17 57.782C121.17 57.782 122.652 60.9572 128.025 59.8319" stroke="#263238" stroke-linecap="round" stroke-linejoin="round"/>
<path d="M136.925 62.0713C137.32 62.7128 137.925 63.1952 138.636 63.4352C139.346 63.6752 140.117 63.6578 140.816 63.3859" stroke="#263238" stroke-linecap="round" stroke-linejoin="round"/>
<path d="M122.696 52.5457C124.073 51.9549 125.555 51.6504 127.052 51.6504C128.549 51.6504 130.031 51.9549 131.408 52.5457" stroke="#263238" stroke-linecap="round" stroke-linejoin="round"/>
<path d="M142.298 56.8463C141.557 54.7853 138.229 54.0388 138.229 54.0388" stroke="#263238" stroke-linecap="round" stroke-linejoin="round"/>
<path d="M176.018 137.774L159.434 141.528C159.434 141.528 138.86 140.626 137.323 141.228C135.786 141.829 137.179 147.99 137.179 147.99C134.945 148.154 132.702 148.154 130.468 147.99C127.936 147.689 126.742 148.146 127.339 149.795C127.936 151.444 130.468 152.948 132.867 152.948C135.321 152.777 137.76 152.427 140.164 151.901C140.164 151.901 146.278 154.129 148.522 154.129C150.767 154.129 154.05 152.179 154.05 152.179C154.05 152.179 158.075 152.324 160.164 152.48C162.254 152.636 164.929 149.918 164.929 149.918L181.181 149.472L176.018 137.774Z" fill="white" stroke="#263238" stroke-linecap="round" stroke-linejoin="round"/>
<path d="M134.57 140.181C134.57 140.181 130.689 140.481 130.689 141.685C130.689 142.888 133.829 151.901 133.829 151.901L140.087 152.503C140.087 152.503 140.982 152.202 140.231 150.999C139.362 149.879 138.364 148.869 137.256 147.99L137.4 141.228L134.57 140.181Z" fill="white" stroke="#263238" stroke-linecap="round" stroke-linejoin="round"/>
<path d="M140.96 139.122C140.96 139.122 134.205 138.532 133.951 139.3C133.696 140.069 135.056 151.555 135.056 151.555C135.056 151.555 141.889 153.037 142.795 152.97C143.029 152.942 143.251 152.849 143.435 152.701C143.619 152.552 143.758 152.355 143.836 152.131C143.914 151.907 143.929 151.666 143.878 151.434C143.826 151.202 143.712 150.99 143.547 150.82C142.442 149.96 141.24 149.234 139.965 148.659L140.96 139.122Z" fill="white" stroke="#263238" stroke-linecap="round" stroke-linejoin="round"/>
<path d="M144.863 138.376C144.863 138.376 138.152 137.262 137.853 138.075C137.555 138.888 138.152 150.397 138.152 150.397C138.152 150.397 144.863 152.347 145.747 152.347C145.983 152.332 146.21 152.252 146.403 152.116C146.596 151.979 146.747 151.791 146.84 151.572C146.933 151.354 146.964 151.114 146.929 150.878C146.894 150.643 146.795 150.423 146.643 150.241C145.598 149.31 144.447 148.506 143.216 147.846L144.863 138.376Z" fill="white" stroke="#263238" stroke-linecap="round" stroke-linejoin="round"/>
<path d="M162.154 142.877C162.154 142.877 145.449 136.571 144.564 136.27C143.68 135.969 143.072 136.426 143.072 137.028C143.072 137.629 140.385 148.692 141.281 149.494C142.176 150.297 147.538 151.901 147.538 151.901C147.538 151.901 149.031 150.842 149.186 150.397C149.34 149.951 147.538 148.737 147.538 148.737L147.837 145.395L151.717 146.743" fill="white"/>
<path d="M162.154 142.877C162.154 142.877 145.449 136.571 144.564 136.27C143.68 135.969 143.072 136.426 143.072 137.028C143.072 137.629 140.385 148.692 141.281 149.494C142.176 150.297 147.538 151.901 147.538 151.901C147.538 151.901 149.031 150.842 149.186 150.397C149.34 149.951 147.538 148.737 147.538 148.737L147.837 145.395L151.717 146.743" stroke="#263238" stroke-linecap="round" stroke-linejoin="round"/>
<path d="M163.79 140.326C163.79 140.326 167.527 144.782 165.736 149.495H169.606C169.606 149.495 171.098 141.986 167.671 139.88L163.79 140.326Z" fill="#263238" stroke="#263238" stroke-linecap="round" stroke-linejoin="round"/>
<path d="M169.606 138.075C169.606 138.075 172.248 141.551 172.922 153.216C173.055 155.377 200.883 151.6 208.633 150.096C216.383 148.592 219.368 145.64 219.965 139.122C220.562 132.605 213.398 126.054 208.036 123.803C202.674 121.553 169.606 138.075 169.606 138.075Z" fill="#919191" stroke="#263238" stroke-linecap="round" stroke-linejoin="round"/>
<path d="M106.776 45.8167H95.8856C94.695 45.8167 93.7297 46.7893 93.7297 47.9891V76.8999C93.7297 78.0997 94.695 79.0724 95.8856 79.0724H106.776C107.966 79.0724 108.931 78.0997 108.931 76.8999V47.9891C108.931 46.7893 107.966 45.8167 106.776 45.8167Z" fill="#92E3A9" stroke="#263238" stroke-linecap="round" stroke-linejoin="round"/>
<path d="M91.1316 97.5663L93.7297 86.9267L88.2018 69.3574C88.2018 69.3574 93.2101 56.4674 94.1387 55.1639C95.0674 53.8604 97.4555 52.5458 98.3952 52.9357C99.335 53.3256 99.3239 54.618 98.0304 55.3644C97.1171 56.0204 96.4078 56.9246 95.9851 57.9714L93.2101 67.5081L94.4704 69.5914L97.9972 58.7513C97.9972 58.7513 108.191 57.4478 108.743 57.4478C109.296 57.4478 111.53 57.6372 110.413 59.1301C109.793 60.0005 108.868 60.6017 107.826 60.8123H112.082C112.082 60.8123 113.564 61.5588 112.635 62.684C111.706 63.8093 105.416 65.4804 105.416 65.4804L103.006 73.1454L107.638 67.7197L112.27 66.9733C112.27 66.9733 115.421 67.7197 114.868 69.0344C114.316 70.349 111.552 69.5914 111.552 69.5914L108.766 71.0843L104.509 78.883V88.5979C104.509 91.0266 100.242 99.8168 100.242 99.8168L91.1316 97.5663Z" fill="white" stroke="#263238" stroke-linecap="round" stroke-linejoin="round"/>
<path d="M107.826 60.7678L101.513 62.2607L98.1852 73.1008" stroke="#263238" stroke-linecap="round" stroke-linejoin="round"/>
<path d="M88.9757 94.1016L105.825 99.8503C105.825 99.8503 92.4694 159.254 90.3467 164.691C86.9636 173.47 74.968 171.654 70.0371 170.094C65.1062 168.534 62.2981 158.864 63.5584 154.942C64.8188 151.021 88.9757 94.1016 88.9757 94.1016Z" fill="#919191" stroke="#263238" stroke-linecap="round" stroke-linejoin="round"/>
<path d="M189.335 66.675H184.775L183.935 69H182.495L186.275 58.605H187.85L191.615 69H190.175L189.335 66.675ZM188.945 65.565L187.055 60.285L185.165 65.565H188.945ZM196.652 60.645C197.362 60.645 197.982 60.8 198.512 61.11C199.052 61.42 199.452 61.81 199.712 62.28V60.78H201.092V69.18C201.092 69.93 200.932 70.595 200.612 71.175C200.292 71.765 199.832 72.225 199.232 72.555C198.642 72.885 197.952 73.05 197.162 73.05C196.082 73.05 195.182 72.795 194.462 72.285C193.742 71.775 193.317 71.08 193.187 70.2H194.537C194.687 70.7 194.997 71.1 195.467 71.4C195.937 71.71 196.502 71.865 197.162 71.865C197.912 71.865 198.522 71.63 198.992 71.16C199.472 70.69 199.712 70.03 199.712 69.18V67.455C199.442 67.935 199.042 68.335 198.512 68.655C197.982 68.975 197.362 69.135 196.652 69.135C195.922 69.135 195.257 68.955 194.657 68.595C194.067 68.235 193.602 67.73 193.262 67.08C192.922 66.43 192.752 65.69 192.752 64.86C192.752 64.02 192.922 63.285 193.262 62.655C193.602 62.015 194.067 61.52 194.657 61.17C195.257 60.82 195.922 60.645 196.652 60.645ZM199.712 64.875C199.712 64.255 199.587 63.715 199.337 63.255C199.087 62.795 198.747 62.445 198.317 62.205C197.897 61.955 197.432 61.83 196.922 61.83C196.412 61.83 195.947 61.95 195.527 62.19C195.107 62.43 194.772 62.78 194.522 63.24C194.272 63.7 194.147 64.24 194.147 64.86C194.147 65.49 194.272 66.04 194.522 66.51C194.772 66.97 195.107 67.325 195.527 67.575C195.947 67.815 196.412 67.935 196.922 67.935C197.432 67.935 197.897 67.815 198.317 67.575C198.747 67.325 199.087 66.97 199.337 66.51C199.587 66.04 199.712 65.495 199.712 64.875ZM210.899 64.575C210.899 64.835 210.884 65.11 210.854 65.4H204.284C204.334 66.21 204.609 66.845 205.109 67.305C205.619 67.755 206.234 67.98 206.954 67.98C207.544 67.98 208.034 67.845 208.424 67.575C208.824 67.295 209.104 66.925 209.264 66.465H210.734C210.514 67.255 210.074 67.9 209.414 68.4C208.754 68.89 207.934 69.135 206.954 69.135C206.174 69.135 205.474 68.96 204.854 68.61C204.244 68.26 203.764 67.765 203.414 67.125C203.064 66.475 202.889 65.725 202.889 64.875C202.889 64.025 203.059 63.28 203.399 62.64C203.739 62 204.214 61.51 204.824 61.17C205.444 60.82 206.154 60.645 206.954 60.645C207.734 60.645 208.424 60.815 209.024 61.155C209.624 61.495 210.084 61.965 210.404 62.565C210.734 63.155 210.899 63.825 210.899 64.575ZM209.489 64.29C209.489 63.77 209.374 63.325 209.144 62.955C208.914 62.575 208.599 62.29 208.199 62.1C207.809 61.9 207.374 61.8 206.894 61.8C206.204 61.8 205.614 62.02 205.124 62.46C204.644 62.9 204.369 63.51 204.299 64.29H209.489ZM216.706 60.63C217.706 60.63 218.516 60.935 219.136 61.545C219.756 62.145 220.066 63.015 220.066 64.155V69H218.716V64.35C218.716 63.53 218.511 62.905 218.101 62.475C217.691 62.035 217.131 61.815 216.421 61.815C215.701 61.815 215.126 62.04 214.696 62.49C214.276 62.94 214.066 63.595 214.066 64.455V69H212.701V60.78H214.066V61.95C214.336 61.53 214.701 61.205 215.161 60.975C215.631 60.745 216.146 60.63 216.706 60.63ZM221.786 64.86C221.786 64.02 221.956 63.285 222.296 62.655C222.636 62.015 223.101 61.52 223.691 61.17C224.291 60.82 224.961 60.645 225.701 60.645C226.341 60.645 226.936 60.795 227.486 61.095C228.036 61.385 228.456 61.77 228.746 62.25V57.9H230.126V69H228.746V67.455C228.476 67.945 228.076 68.35 227.546 68.67C227.016 68.98 226.396 69.135 225.686 69.135C224.956 69.135 224.291 68.955 223.691 68.595C223.101 68.235 222.636 67.73 222.296 67.08C221.956 66.43 221.786 65.69 221.786 64.86ZM228.746 64.875C228.746 64.255 228.621 63.715 228.371 63.255C228.121 62.795 227.781 62.445 227.351 62.205C226.931 61.955 226.466 61.83 225.956 61.83C225.446 61.83 224.981 61.95 224.561 62.19C224.141 62.43 223.806 62.78 223.556 63.24C223.306 63.7 223.181 64.24 223.181 64.86C223.181 65.49 223.306 66.04 223.556 66.51C223.806 66.97 224.141 67.325 224.561 67.575C224.981 67.815 225.446 67.935 225.956 67.935C226.466 67.935 226.931 67.815 227.351 67.575C227.781 67.325 228.121 66.97 228.371 66.51C228.621 66.04 228.746 65.495 228.746 64.875ZM233.137 59.445C232.877 59.445 232.657 59.355 232.477 59.175C232.297 58.995 232.207 58.775 232.207 58.515C232.207 58.255 232.297 58.035 232.477 57.855C232.657 57.675 232.877 57.585 233.137 57.585C233.387 57.585 233.597 57.675 233.767 57.855C233.947 58.035 234.037 58.255 234.037 58.515C234.037 58.775 233.947 58.995 233.767 59.175C233.597 59.355 233.387 59.445 233.137 59.445ZM233.797 60.78V69H232.432V60.78H233.797ZM237.144 67.875H241.179V69H235.584V67.875L239.574 61.89H235.614V60.78H241.149V61.89L237.144 67.875ZM250.45 64.575C250.45 64.835 250.435 65.11 250.405 65.4H243.835C243.885 66.21 244.16 66.845 244.66 67.305C245.17 67.755 245.785 67.98 246.505 67.98C247.095 67.98 247.585 67.845 247.975 67.575C248.375 67.295 248.655 66.925 248.815 66.465H250.285C250.065 67.255 249.625 67.9 248.965 68.4C248.305 68.89 247.485 69.135 246.505 69.135C245.725 69.135 245.025 68.96 244.405 68.61C243.795 68.26 243.315 67.765 242.965 67.125C242.615 66.475 242.44 65.725 242.44 64.875C242.44 64.025 242.61 63.28 242.95 62.64C243.29 62 243.765 61.51 244.375 61.17C244.995 60.82 245.705 60.645 246.505 60.645C247.285 60.645 247.975 60.815 248.575 61.155C249.175 61.495 249.635 61.965 249.955 62.565C250.285 63.155 250.45 63.825 250.45 64.575ZM249.04 64.29C249.04 63.77 248.925 63.325 248.695 62.955C248.465 62.575 248.15 62.29 247.75 62.1C247.36 61.9 246.925 61.8 246.445 61.8C245.755 61.8 245.165 62.02 244.675 62.46C244.195 62.9 243.92 63.51 243.85 64.29H249.04Z" fill="#222222"/>
</g>
<defs>
<clipPath id="clip0_97_24">
<rect width="571" height="513" fill="white" transform="translate(0 -95)"/>
</clipPath>
</defs>
</svg>
