<?xml version="1.0" ?><svg xmlns="http://www.w3.org/2000/svg" xmlns:xlink="http://www.w3.org/1999/xlink" version="1.1" viewBox="0 0 32 32" style="enable-background:new 0 0 32 32;" xml:space="preserve"><style type="text/css">
	.st0{display:none;}
	.st1{display:inline;}
	.st2{fill:#CDF6F9;}
	.st3{fill:#FFFFFF;}
	.st4{fill:#1A83A8;}
</style><g id="Grid" class="st0"/><g id="Money"/><g id="Receipt"/><g id="Search"/><g id="Chart"/><g id="Briefcase"/><g id="Coin"><path class="st2" d="M29.155,5.262c0,1.166-1.578,2.188-3.957,2.75c-1.293,0.317-2.828,0.501-4.472,0.501   c-1.633,0-3.168-0.184-4.461-0.501c-2.378-0.562-3.957-1.585-3.957-2.75c0-1.8,3.77-3.262,8.418-3.262   C25.384,2,29.155,3.462,29.155,5.262z"/><path class="st2" d="M29.155,5.262v5.511c0,1.166-1.567,2.178-3.935,2.75c-1.304,0.327-2.839,0.511-4.494,0.511   c-1.644,0-3.19-0.184-4.483-0.511c-2.367-0.573-3.935-1.585-3.935-2.75V5.262c0,1.166,1.578,2.188,3.957,2.75   c1.293,0.317,2.828,0.501,4.461,0.501c1.644,0,3.179-0.184,4.472-0.501C27.577,7.45,29.155,6.427,29.155,5.262z"/><path class="st2" d="M29.155,10.773v5.511c0,1.166-1.567,2.178-3.935,2.761c-1.304,0.317-2.839,0.501-4.494,0.501   c-1.644,0-3.19-0.184-4.483-0.501c-2.367-0.583-3.935-1.595-3.935-2.761v-5.511c0,1.166,1.567,2.178,3.935,2.75   c1.293,0.327,2.839,0.511,4.483,0.511c1.655,0,3.19-0.184,4.494-0.511C27.588,12.95,29.155,11.938,29.155,10.773z"/><path class="st2" d="M29.155,16.284v5.511c0,1.81-3.77,3.262-8.429,3.262c-4.647,0-8.418-1.452-8.418-3.262v-5.511   c0,1.166,1.567,2.178,3.935,2.761c1.293,0.317,2.839,0.501,4.483,0.501c1.655,0,3.19-0.184,4.494-0.501   C27.588,18.461,29.155,17.449,29.155,16.284z"/><circle class="st3" cx="10.549" cy="22.296" r="7.704"/><path class="st4" d="M20.726,1.1c-4.63,0-9.317,1.429-9.317,4.162c0,0.004,0.001,0.007,0.001,0.011v5.497   c0,0.497,0.403,0.9,0.9,0.9s0.9-0.403,0.9-0.9V7.805c0.742,0.441,1.693,0.809,2.841,1.081c1.407,0.345,3.023,0.527,4.675,0.527   c1.659,0,3.28-0.182,4.679-0.525c1.15-0.272,2.102-0.64,2.845-1.081V9.77v1c0,0.44-0.863,1.303-3.251,1.877   c-1.978,0.502-4.592,0.625-6.999,0.3c-0.491-0.064-0.946,0.279-1.012,0.772c-0.066,0.492,0.279,0.946,0.772,1.012   c0.974,0.131,1.973,0.198,2.97,0.198c1.697,0,3.327-0.186,4.701-0.535c1.139-0.274,2.083-0.642,2.819-1.081v2.966   c0,0.439-0.864,1.304-3.248,1.887c-1.068,0.267-2.287,0.426-3.624,0.474c-0.497,0.018-0.885,0.435-0.867,0.932   c0.018,0.497,0.415,0.889,0.932,0.867c1.461-0.052,2.806-0.229,3.992-0.525c1.134-0.277,2.081-0.646,2.816-1.084v2.96   c0,0.875-2.675,2.225-6.867,2.351c-0.497,0.015-0.888,0.43-0.873,0.926c0.015,0.488,0.415,0.873,0.899,0.873   c0.009,0,0.018,0,0.027,0c4.148-0.124,8.613-1.476,8.613-4.149v-4.51v-1v-5.51v-1c0-1.503,0.005-3.006,0.005-4.508   C30.055,2.529,25.362,1.1,20.726,1.1z M24.984,7.138c-2.531,0.62-5.953,0.625-8.512-0.002c-0.737-0.174-3.263-0.755-3.263-1.879   c0.01-0.803,2.661-2.357,7.517-2.357c4.846,0,7.498,1.543,7.526,2.349C28.235,6.39,25.743,6.959,24.984,7.138z"/><path class="st4" d="M10.744,21.419c-1.176-0.268-1.172-0.53-1.172-0.532c0.035-0.508,1.175-0.619,1.651-0.643   c0.046,0.454,0.429,0.809,0.896,0.809c0.497,0,0.9-0.403,0.9-0.9c0-0.463-0.191-0.913-0.524-1.234   c-0.288-0.279-0.661-0.438-1.049-0.466v-0.081c0-0.497-0.403-0.9-0.9-0.9s-0.9,0.403-0.9,0.9v0.322   c-1.487,0.458-1.826,1.433-1.87,2.071c-0.081,1.192,0.783,2.002,2.568,2.409c1.1,0.25,1.182,0.529,1.182,0.532   c-0.012,0.456-1.072,0.62-1.661,0.668c-0.034-0.466-0.422-0.833-0.897-0.833c-0.497,0-0.9,0.403-0.9,0.9   c0,0.468,0.186,0.905,0.522,1.23c0.285,0.275,0.662,0.435,1.056,0.468v0.082c0,0.497,0.403,0.9,0.9,0.9s0.9-0.403,0.9-0.9v-0.315   c1.623-0.498,1.866-1.612,1.88-2.153C13.347,22.96,12.916,21.912,10.744,21.419z"/><path class="st4" d="M10.549,13.692c-4.744,0-8.604,3.86-8.604,8.604s3.86,8.604,8.604,8.604s8.604-3.86,8.604-8.604   S15.293,13.692,10.549,13.692z M10.549,29.1c-3.752,0-6.804-3.052-6.804-6.804s3.052-6.804,6.804-6.804s6.804,3.052,6.804,6.804   S14.301,29.1,10.549,29.1z"/></g><g id="Tax"/><g id="Vision"/><g id="Contract"/><g id="Book"/><g id="Financial"/><g id="Payment_day"/><g id="Report"/><g id="Loss"/><g id="Profit"/><g id="Money_Bag"/><g id="Target"/><g id="Gold"/><g id="Safety_Box"/><g id="Wallet"/><g id="Investment"/><g id="Pie_Chart"/><g id="Home"/><g id="Assets"/><g id="Computer"/></svg>