<svg width="92" height="74" viewBox="0 0 92 74" fill="none" xmlns="http://www.w3.org/2000/svg">
<path d="M80.2287 9.36707H13.3289C11.0485 9.36707 9.19995 11.4324 9.19995 13.98V62.5405C9.19995 65.0882 11.0485 67.1535 13.3289 67.1535H80.2287C82.5091 67.1535 84.3576 65.0882 84.3576 62.5405V13.98C84.3576 11.4324 82.5091 9.36707 80.2287 9.36707Z" fill="white"/>
<mask id="mask0_165_2" style="mask-type:luminance" maskUnits="userSpaceOnUse" x="9" y="9" width="76" height="59">
<path d="M80.2287 9.36707H13.3289C11.0485 9.36707 9.19995 11.4324 9.19995 13.98V62.5405C9.19995 65.0882 11.0485 67.1535 13.3289 67.1535H80.2287C82.5091 67.1535 84.3576 65.0882 84.3576 62.5405V13.98C84.3576 11.4324 82.5091 9.36707 80.2287 9.36707Z" fill="white"/>
</mask>
<g mask="url(#mask0_165_2)">
<path d="M17.0662 9.36707V67.1535H13.3289C12.2338 67.1535 11.1836 66.6675 10.4093 65.8024C9.63496 64.9373 9.19995 63.7639 9.19995 62.5405V13.98C9.19995 12.7566 9.63496 11.5833 10.4093 10.7182C11.1836 9.85307 12.2338 9.36707 13.3289 9.36707H17.0662Z" fill="#92E3A9"/>
<path opacity="0.2" d="M17.0662 9.36707V67.1535H13.3289C12.2338 67.1535 11.1836 66.6675 10.4093 65.8024C9.63496 64.9373 9.19995 63.7639 9.19995 62.5405V13.98C9.19995 12.7566 9.63496 11.5833 10.4093 10.7182C11.1836 9.85307 12.2338 9.36707 13.3289 9.36707H17.0662Z" fill="black"/>
</g>
<path d="M80.2287 9.36707H13.3289C11.0485 9.36707 9.19995 11.4324 9.19995 13.98V62.5405C9.19995 65.0882 11.0485 67.1535 13.3289 67.1535H80.2287C82.5091 67.1535 84.3576 65.0882 84.3576 62.5405V13.98C84.3576 11.4324 82.5091 9.36707 80.2287 9.36707Z" stroke="#263238" stroke-miterlimit="10"/>
<path d="M35.5068 45.7045V45.4471" stroke="#263238" stroke-linecap="round" stroke-linejoin="round"/>
<path d="M60.777 45.7045V45.4471" stroke="#263238" stroke-linecap="round" stroke-linejoin="round"/>
<path d="M36.7509 45.7045V35.3947" stroke="#263238" stroke-linecap="round" stroke-linejoin="round"/>
<path d="M36.7509 44.4176H37.3831" stroke="#263238" stroke-linecap="round" stroke-linejoin="round"/>
<path d="M36.7509 43.1278H37.3831" stroke="#263238" stroke-linecap="round" stroke-linejoin="round"/>
<path d="M36.7509 41.8379H37.3831" stroke="#263238" stroke-linecap="round" stroke-linejoin="round"/>
<path d="M36.7509 40.5482H37.3831" stroke="#263238" stroke-linecap="round" stroke-linejoin="round"/>
<path d="M36.7509 39.2612H37.3831" stroke="#263238" stroke-linecap="round" stroke-linejoin="round"/>
<path d="M36.7509 37.9714H37.3831" stroke="#263238" stroke-linecap="round" stroke-linejoin="round"/>
<path d="M36.7509 36.6844H37.3831" stroke="#263238" stroke-linecap="round" stroke-linejoin="round"/>
<path d="M36.7509 35.3947H37.3831" stroke="#263238" stroke-linecap="round" stroke-linejoin="round"/>
<path d="M58.1711 37.9714H56.7709V45.7045H58.1711V37.9714Z" fill="#263238"/>
<path d="M56.6174 43.7712H55.2172V45.7045H56.6174V43.7712Z" fill="#92E3A9"/>
<path d="M55.0635 43.3851H53.6633V45.7045H55.0635V43.3851Z" fill="#263238"/>
<path d="M53.5071 39.2612H52.1069V45.7074H53.5071V39.2612Z" fill="#92E3A9"/>
<path d="M51.9534 41.8379H50.5532V45.7044H51.9534V41.8379Z" fill="#263238"/>
<path d="M50.397 42.4843H48.9968V45.7045H50.397V42.4843Z" fill="#92E3A9"/>
<path d="M48.8408 43.1278H47.4406V45.7045H48.8408V43.1278Z" fill="#263238"/>
<path d="M47.2869 36.6844H45.8867V45.7073H47.2869V36.6844Z" fill="#92E3A9"/>
<path d="M45.7331 44.4176H44.3329V45.7074H45.7331V44.4176Z" fill="#263238"/>
<path d="M44.1768 41.8379H42.7766V45.7044H44.1768V41.8379Z" fill="#92E3A9"/>
<path d="M42.623 39.2955H41.2228V45.7417H42.623V39.2955Z" fill="#263238"/>
<path d="M41.0667 40.5482H39.6665V45.7046H41.0667V40.5482Z" fill="#92E3A9"/>
<path d="M39.5129 43.1278H38.1127V45.7045H39.5129V43.1278Z" fill="#263238"/>
<path d="M35.5068 45.7045H60.777" stroke="#263238" stroke-linecap="round" stroke-linejoin="round"/>
<path d="M33.569 14.6521C33.6097 14.6521 33.65 14.661 33.6875 14.6784C33.7251 14.6958 33.7593 14.7213 33.788 14.7535C33.8168 14.7856 33.8396 14.8237 33.8552 14.8657C33.8707 14.9077 33.8787 14.9527 33.8787 14.9981C33.8787 15.0436 33.8707 15.0886 33.8552 15.1306C33.8396 15.1726 33.8168 15.2107 33.788 15.2428C33.7593 15.275 33.7251 15.3005 33.6875 15.3178C33.65 15.3352 33.6097 15.3442 33.569 15.3442C33.4871 15.3434 33.4087 15.3067 33.3507 15.242C33.2928 15.1773 33.2599 15.0897 33.2593 14.9981C33.2593 14.9064 33.2919 14.8183 33.35 14.7535C33.4081 14.6886 33.4869 14.6521 33.569 14.6521Z" fill="white" stroke="#263238" stroke-linecap="round" stroke-linejoin="round"/>
<path d="M22.1908 29.572H55.4551" stroke="#263238" stroke-linecap="round" stroke-linejoin="round"/>
<path d="M22.1908 29.572V29.2059" stroke="#263238" stroke-linecap="round" stroke-linejoin="round"/>
<path d="M23.9418 29.572V29.2059" stroke="#263238" stroke-linecap="round" stroke-linejoin="round"/>
<path d="M25.6901 29.572V29.2059" stroke="#263238" stroke-linecap="round" stroke-linejoin="round"/>
<path d="M27.4409 29.572V29.2059" stroke="#263238" stroke-linecap="round" stroke-linejoin="round"/>
<path d="M29.1918 29.572V29.2059" stroke="#263238" stroke-linecap="round" stroke-linejoin="round"/>
<path d="M30.9427 29.572V29.2059" stroke="#263238" stroke-linecap="round" stroke-linejoin="round"/>
<path d="M32.6936 29.572V29.2059" stroke="#263238" stroke-linecap="round" stroke-linejoin="round"/>
<path d="M34.4445 29.572V29.2059" stroke="#263238" stroke-linecap="round" stroke-linejoin="round"/>
<path d="M36.1954 29.572V29.2059" stroke="#263238" stroke-linecap="round" stroke-linejoin="round"/>
<path d="M37.9463 29.572V29.2059" stroke="#263238" stroke-linecap="round" stroke-linejoin="round"/>
<path d="M39.6971 29.572V29.2059" stroke="#263238" stroke-linecap="round" stroke-linejoin="round"/>
<path d="M41.448 29.572V29.2059" stroke="#263238" stroke-linecap="round" stroke-linejoin="round"/>
<path d="M43.199 29.572V29.2059" stroke="#263238" stroke-linecap="round" stroke-linejoin="round"/>
<path d="M44.9498 29.572V29.2059" stroke="#263238" stroke-linecap="round" stroke-linejoin="round"/>
<path d="M46.7007 29.572V29.2059" stroke="#263238" stroke-linecap="round" stroke-linejoin="round"/>
<path d="M48.4517 29.572V29.2059" stroke="#263238" stroke-linecap="round" stroke-linejoin="round"/>
<path d="M50.2025 29.572V29.2059" stroke="#263238" stroke-linecap="round" stroke-linejoin="round"/>
<path d="M51.9534 29.572V29.2059" stroke="#263238" stroke-linecap="round" stroke-linejoin="round"/>
<path d="M53.7042 29.572V29.2059" stroke="#263238" stroke-linecap="round" stroke-linejoin="round"/>
<path d="M55.4552 29.572V29.2059" stroke="#263238" stroke-linecap="round" stroke-linejoin="round"/>
<path d="M22.1908 29.572V14.9952" stroke="#263238" stroke-linecap="round" stroke-linejoin="round"/>
<path d="M22.1908 26.6578H23.0227" stroke="#263238" stroke-linecap="round" stroke-linejoin="round"/>
<path d="M22.1908 23.7407H23.0227" stroke="#263238" stroke-linecap="round" stroke-linejoin="round"/>
<path d="M22.1908 20.8265H23.0227" stroke="#263238" stroke-linecap="round" stroke-linejoin="round"/>
<path d="M22.1908 17.9094H23.0227" stroke="#263238" stroke-linecap="round" stroke-linejoin="round"/>
<path d="M22.1908 14.9952H23.0227" stroke="#263238" stroke-linecap="round" stroke-linejoin="round"/>
<path d="M24.8172 17.9094L23.0663 26.6577" stroke="#263238" stroke-linecap="round" stroke-linejoin="round"/>
<path d="M26.568 22.8656L24.8171 17.9094" stroke="#263238" stroke-linecap="round" stroke-linejoin="round"/>
<path d="M28.319 20.8265L26.5681 22.8656" stroke="#263238" stroke-linecap="round" stroke-linejoin="round"/>
<path d="M30.0699 26.0744L28.319 20.8265" stroke="#263238" stroke-linecap="round" stroke-linejoin="round"/>
<path d="M31.8182 17.9094L30.0698 26.0743" stroke="#263238" stroke-linecap="round" stroke-linejoin="round"/>
<path d="M33.569 14.9952L31.8181 17.9094" stroke="#263238" stroke-linecap="round" stroke-linejoin="round"/>
<path d="M35.32 28.1134L33.5691 14.9952" stroke="#263238" stroke-linecap="round" stroke-linejoin="round"/>
<path d="M37.0708 27.2384L35.3199 28.1135" stroke="#263238" stroke-linecap="round" stroke-linejoin="round"/>
<path d="M38.8217 26.9467L37.0708 27.2384" stroke="#263238" stroke-linecap="round" stroke-linejoin="round"/>
<path d="M40.5727 26.0743L38.8218 26.9466" stroke="#263238" stroke-linecap="round" stroke-linejoin="round"/>
<path d="M42.3235 24.9076L40.5726 26.0744" stroke="#263238" stroke-linecap="round" stroke-linejoin="round"/>
<path d="M44.0744 25.491L42.3235 24.9076" stroke="#263238" stroke-linecap="round" stroke-linejoin="round"/>
<path d="M45.8252 26.6578L44.0743 25.491" stroke="#263238" stroke-linecap="round" stroke-linejoin="round"/>
<path d="M47.5762 20.5348L45.8253 26.6578" stroke="#263238" stroke-linecap="round" stroke-linejoin="round"/>
<path d="M49.3271 19.6597L47.5762 20.5348" stroke="#263238" stroke-linecap="round" stroke-linejoin="round"/>
<path d="M51.0779 18.4929L49.327 19.6597" stroke="#263238" stroke-linecap="round" stroke-linejoin="round"/>
<path d="M52.8289 19.6597L51.078 18.4929" stroke="#263238" stroke-linecap="round" stroke-linejoin="round"/>
<path d="M54.5772 20.8265L52.8289 19.6597" stroke="#263238" stroke-linecap="round" stroke-linejoin="round"/>
<path d="M23.0662 26.3118C23.1074 26.3118 23.1481 26.3209 23.186 26.3386C23.2239 26.3564 23.2583 26.3824 23.2871 26.4151C23.3159 26.4479 23.3386 26.4867 23.3539 26.5293C23.3692 26.572 23.3767 26.6176 23.376 26.6635C23.3753 26.7548 23.3424 26.8421 23.2844 26.9064C23.2263 26.9706 23.148 27.0067 23.0662 27.0067C22.9845 27.0067 22.9061 26.9706 22.8481 26.9064C22.7901 26.8421 22.7572 26.7548 22.7565 26.6635C22.7558 26.6176 22.7633 26.572 22.7786 26.5293C22.7939 26.4867 22.8166 26.4479 22.8454 26.4151C22.8742 26.3824 22.9086 26.3564 22.9465 26.3386C22.9844 26.3209 23.0251 26.3118 23.0662 26.3118Z" fill="white" stroke="#263238" stroke-linecap="round" stroke-linejoin="round"/>
<path d="M24.8172 17.5635C24.8579 17.5635 24.8981 17.5724 24.9357 17.5898C24.9733 17.6072 25.0074 17.6327 25.0362 17.6648C25.065 17.697 25.0878 17.7351 25.1033 17.7771C25.1189 17.8191 25.1269 17.8641 25.1269 17.9095C25.1269 17.955 25.1189 18 25.1033 18.0419C25.0878 18.0839 25.065 18.1221 25.0362 18.1542C25.0074 18.1863 24.9733 18.2118 24.9357 18.2292C24.8981 18.2466 24.8579 18.2556 24.8172 18.2556C24.7765 18.2556 24.7362 18.2466 24.6986 18.2292C24.6611 18.2118 24.6269 18.1863 24.5982 18.1542C24.5694 18.1221 24.5466 18.0839 24.531 18.0419C24.5155 18 24.5074 17.955 24.5074 17.9095C24.5074 17.8177 24.5401 17.7297 24.5982 17.6648C24.6563 17.5999 24.735 17.5635 24.8172 17.5635Z" fill="white" stroke="#263238" stroke-linecap="round" stroke-linejoin="round"/>
<path d="M26.568 22.5195C26.6087 22.5195 26.649 22.5285 26.6866 22.5459C26.7241 22.5633 26.7583 22.5888 26.787 22.6209C26.8158 22.653 26.8386 22.6912 26.8542 22.7332C26.8698 22.7751 26.8778 22.8201 26.8778 22.8656C26.8778 22.9574 26.8451 23.0454 26.787 23.1103C26.729 23.1752 26.6502 23.2116 26.568 23.2116C26.4859 23.2116 26.4071 23.1752 26.349 23.1103C26.2909 23.0454 26.2583 22.9574 26.2583 22.8656C26.2583 22.8201 26.2663 22.7751 26.2819 22.7332C26.2974 22.6912 26.3203 22.653 26.349 22.6209C26.3778 22.5888 26.4119 22.5633 26.4495 22.5459C26.4871 22.5285 26.5274 22.5195 26.568 22.5195Z" fill="white" stroke="#263238" stroke-linecap="round" stroke-linejoin="round"/>
<path d="M28.3189 20.4805C28.4006 20.4805 28.479 20.5165 28.537 20.5808C28.595 20.6451 28.6279 20.7324 28.6286 20.8237C28.6286 20.9154 28.596 21.0035 28.5379 21.0684C28.4798 21.1332 28.401 21.1697 28.3189 21.1697C28.2367 21.1697 28.158 21.1332 28.0999 21.0684C28.0418 21.0035 28.0092 20.9154 28.0092 20.8237C28.0092 20.7784 28.0172 20.7335 28.0328 20.6917C28.0484 20.6498 28.0712 20.6119 28.1 20.58C28.1288 20.5481 28.163 20.5229 28.2006 20.5058C28.2381 20.4887 28.2783 20.4801 28.3189 20.4805Z" fill="white" stroke="#263238" stroke-linecap="round" stroke-linejoin="round"/>
<path d="M30.0699 25.7284C30.152 25.7284 30.2308 25.7649 30.2889 25.8297C30.347 25.8946 30.3796 25.9827 30.3796 26.0744C30.3789 26.1657 30.346 26.253 30.288 26.3173C30.23 26.3816 30.1516 26.4176 30.0699 26.4176C29.9882 26.4176 29.9098 26.3816 29.8518 26.3173C29.7937 26.253 29.7608 26.1657 29.7601 26.0744C29.7601 25.9827 29.7928 25.8946 29.8509 25.8297C29.9089 25.7649 29.9877 25.7284 30.0699 25.7284Z" fill="white" stroke="#263238" stroke-linecap="round" stroke-linejoin="round"/>
<path d="M31.8233 17.5635C31.9054 17.5635 31.9842 17.5999 32.0423 17.6648C32.1004 17.7297 32.133 17.8177 32.133 17.9095C32.133 17.955 32.125 18 32.1094 18.0419C32.0939 18.0839 32.0711 18.1221 32.0423 18.1542C32.0135 18.1863 31.9794 18.2118 31.9418 18.2292C31.9042 18.2466 31.864 18.2556 31.8233 18.2556C31.7826 18.2556 31.7423 18.2466 31.7048 18.2292C31.6672 18.2118 31.633 18.1863 31.6043 18.1542C31.5755 18.1221 31.5527 18.0839 31.5371 18.0419C31.5216 18 31.5135 17.955 31.5135 17.9095C31.5135 17.8177 31.5462 17.7297 31.6043 17.6648C31.6624 17.5999 31.7411 17.5635 31.8233 17.5635Z" fill="white" stroke="#263238" stroke-linecap="round" stroke-linejoin="round"/>
<path d="M35.32 27.7675C35.4021 27.7675 35.4809 27.8039 35.539 27.8688C35.5971 27.9337 35.6297 28.0217 35.6297 28.1135C35.6297 28.2053 35.5971 28.2933 35.539 28.3582C35.4809 28.4231 35.4021 28.4595 35.32 28.4595C35.2793 28.4595 35.239 28.4506 35.2015 28.4332C35.1639 28.4158 35.1297 28.3903 35.101 28.3582C35.0722 28.3261 35.0494 28.2879 35.0338 28.2459C35.0183 28.2039 35.0103 28.1589 35.0103 28.1135C35.0103 28.0681 35.0183 28.0231 35.0338 27.9811C35.0494 27.9391 35.0722 27.9009 35.101 27.8688C35.1297 27.8367 35.1639 27.8112 35.2015 27.7938C35.239 27.7764 35.2793 27.7675 35.32 27.7675Z" fill="white" stroke="#263238" stroke-linecap="round" stroke-linejoin="round"/>
<path d="M37.0708 26.8952C37.1114 26.8948 37.1516 26.9034 37.1892 26.9205C37.2267 26.9375 37.2609 26.9627 37.2897 26.9947C37.3185 27.0266 37.3414 27.0645 37.357 27.1063C37.3725 27.1482 37.3806 27.193 37.3806 27.2383C37.3806 27.3301 37.3479 27.4181 37.2899 27.483C37.2318 27.5479 37.153 27.5844 37.0708 27.5844C36.9887 27.5844 36.9099 27.5479 36.8518 27.483C36.7937 27.4181 36.7611 27.3301 36.7611 27.2383C36.7618 27.1471 36.7947 27.0598 36.8527 26.9955C36.9107 26.9312 36.9891 26.8952 37.0708 26.8952Z" fill="white" stroke="#263238" stroke-linecap="round" stroke-linejoin="round"/>
<path d="M38.8217 26.6034C38.8623 26.603 38.9025 26.6116 38.94 26.6287C38.9776 26.6458 39.0118 26.671 39.0406 26.7029C39.0694 26.7348 39.0922 26.7728 39.1078 26.8146C39.1234 26.8564 39.1314 26.9013 39.1314 26.9466C39.1314 26.992 39.1234 27.037 39.1079 27.079C39.0923 27.121 39.0695 27.1591 39.0407 27.1913C39.0119 27.2234 38.9778 27.2489 38.9402 27.2663C38.9026 27.2837 38.8624 27.2926 38.8217 27.2926C38.7396 27.2926 38.6608 27.2562 38.6027 27.1913C38.5446 27.1264 38.512 27.0384 38.512 26.9466C38.5126 26.8553 38.5456 26.768 38.6036 26.7037C38.6616 26.6395 38.74 26.6034 38.8217 26.6034Z" fill="white" stroke="#263238" stroke-linecap="round" stroke-linejoin="round"/>
<path d="M40.5727 25.7284C40.6548 25.7284 40.7336 25.7649 40.7917 25.8297C40.8498 25.8946 40.8824 25.9827 40.8824 26.0744C40.8817 26.1657 40.8488 26.253 40.7908 26.3173C40.7328 26.3816 40.6544 26.4176 40.5727 26.4176C40.491 26.4176 40.4126 26.3816 40.3546 26.3173C40.2965 26.253 40.2636 26.1657 40.2629 26.0744C40.2629 26.029 40.2709 25.984 40.2865 25.942C40.3021 25.9 40.3249 25.8619 40.3537 25.8297C40.3824 25.7976 40.4166 25.7721 40.4541 25.7547C40.4917 25.7373 40.532 25.7284 40.5727 25.7284Z" fill="white" stroke="#263238" stroke-linecap="round" stroke-linejoin="round"/>
<path d="M42.3235 24.5615C42.4057 24.5615 42.4845 24.598 42.5425 24.6629C42.6006 24.7278 42.6333 24.8158 42.6333 24.9076C42.6326 24.9988 42.5997 25.0861 42.5416 25.1504C42.4836 25.2147 42.4052 25.2508 42.3235 25.2508C42.2418 25.2508 42.1634 25.2147 42.1054 25.1504C42.0474 25.0861 42.0145 24.9988 42.0138 24.9076C42.0138 24.8158 42.0464 24.7278 42.1045 24.6629C42.1626 24.598 42.2414 24.5615 42.3235 24.5615Z" fill="white" stroke="#263238" stroke-linecap="round" stroke-linejoin="round"/>
<path d="M44.0846 25.1449C44.1668 25.1449 44.2456 25.1814 44.3036 25.2463C44.3617 25.3111 44.3944 25.3992 44.3944 25.4909C44.3937 25.5822 44.3608 25.6695 44.3028 25.7338C44.2447 25.7981 44.1663 25.8341 44.0846 25.8341C44.0029 25.8341 43.9245 25.7981 43.8665 25.7338C43.8085 25.6695 43.7756 25.5822 43.7749 25.4909C43.7749 25.4455 43.7829 25.4005 43.7985 25.3585C43.814 25.3165 43.8369 25.2784 43.8656 25.2463C43.8944 25.2141 43.9285 25.1886 43.9661 25.1712C44.0037 25.1538 44.044 25.1449 44.0846 25.1449Z" fill="white" stroke="#263238" stroke-linecap="round" stroke-linejoin="round"/>
<path d="M45.8252 26.3118C45.8661 26.3121 45.9065 26.3216 45.9442 26.3395C45.9818 26.3574 46.0159 26.3834 46.0444 26.4161C46.073 26.4489 46.0955 26.4875 46.1106 26.53C46.1257 26.5725 46.1331 26.6178 46.1324 26.6635C46.1317 26.7548 46.0988 26.8421 46.0408 26.9064C45.9828 26.9706 45.9044 27.0067 45.8227 27.0067C45.741 27.0067 45.6626 26.9706 45.6046 26.9064C45.5466 26.8421 45.5136 26.7548 45.5129 26.6635C45.5129 26.5718 45.5456 26.4837 45.6037 26.4188C45.6617 26.3539 45.7405 26.3175 45.8227 26.3175L45.8252 26.3118Z" fill="white" stroke="#263238" stroke-linecap="round" stroke-linejoin="round"/>
<path d="M47.5762 20.1859C47.6584 20.1859 47.7371 20.2224 47.7952 20.2873C47.8533 20.3522 47.8859 20.4402 47.8859 20.532C47.8859 20.6237 47.8533 20.7117 47.7952 20.7766C47.7371 20.8415 47.6584 20.878 47.5762 20.878C47.4941 20.878 47.4153 20.8415 47.3572 20.7766C47.2991 20.7117 47.2665 20.6237 47.2665 20.532C47.2665 20.4402 47.2991 20.3522 47.3572 20.2873C47.4153 20.2224 47.4941 20.1859 47.5762 20.1859Z" fill="white" stroke="#263238" stroke-linecap="round" stroke-linejoin="round"/>
<path d="M49.3271 19.3137C49.4092 19.3137 49.488 19.3502 49.5461 19.4151C49.6042 19.48 49.6368 19.568 49.6368 19.6598C49.6368 19.7515 49.6042 19.8396 49.5461 19.9045C49.488 19.9693 49.4092 20.0058 49.3271 20.0058C49.2449 20.0058 49.1661 19.9693 49.1081 19.9045C49.05 19.8396 49.0173 19.7515 49.0173 19.6598C49.0173 19.568 49.05 19.48 49.1081 19.4151C49.1661 19.3502 49.2449 19.3137 49.3271 19.3137Z" fill="white" stroke="#263238" stroke-linecap="round" stroke-linejoin="round"/>
<path d="M51.0779 18.1469C51.1186 18.1469 51.1589 18.1558 51.1965 18.1732C51.234 18.1906 51.2682 18.2161 51.2969 18.2482C51.3257 18.2803 51.3485 18.3185 51.3641 18.3605C51.3796 18.4025 51.3877 18.4474 51.3877 18.4929C51.387 18.5844 51.3541 18.672 51.2962 18.7368C51.2383 18.8015 51.1599 18.8382 51.0779 18.8389C50.9958 18.8389 50.917 18.8025 50.8589 18.7376C50.8008 18.6727 50.7682 18.5847 50.7682 18.4929C50.7682 18.4474 50.7762 18.4025 50.7918 18.3605C50.8073 18.3185 50.8301 18.2803 50.8589 18.2482C50.8877 18.2161 50.9218 18.1906 50.9594 18.1732C50.997 18.1558 51.0373 18.1469 51.0779 18.1469Z" fill="white" stroke="#263238" stroke-linecap="round" stroke-linejoin="round"/>
<path d="M52.8288 19.3137C52.9109 19.3137 52.9897 19.3502 53.0478 19.4151C53.1059 19.48 53.1385 19.568 53.1385 19.6598C53.1378 19.7513 53.105 19.8389 53.0471 19.9036C52.9891 19.9684 52.9107 20.0051 52.8288 20.0058C52.7466 20.0058 52.6678 19.9693 52.6098 19.9045C52.5517 19.8396 52.519 19.7515 52.519 19.6598C52.519 19.568 52.5517 19.48 52.6098 19.4151C52.6678 19.3502 52.7466 19.3137 52.8288 19.3137Z" fill="white" stroke="#263238" stroke-linecap="round" stroke-linejoin="round"/>
<path d="M54.5798 20.4805C54.6619 20.4805 54.7407 20.5169 54.7988 20.5818C54.8569 20.6467 54.8895 20.7347 54.8895 20.8265C54.8895 20.9183 54.8569 21.0063 54.7988 21.0712C54.7407 21.1361 54.6619 21.1726 54.5798 21.1726C54.4983 21.1711 54.4205 21.134 54.3631 21.0694C54.3057 21.0047 54.2732 20.9176 54.2726 20.8265C54.2726 20.7352 54.3049 20.6476 54.3624 20.5828C54.4199 20.518 54.4981 20.4812 54.5798 20.4805Z" fill="white" stroke="#263238" stroke-linecap="round" stroke-linejoin="round"/>
<path d="M61.3068 54.0696H23.9596C22.9771 54.0696 22.1805 54.9595 22.1805 56.0572V61.7683C22.1805 62.8661 22.9771 63.7559 23.9596 63.7559H61.3068C62.2893 63.7559 63.0858 62.8661 63.0858 61.7683V56.0572C63.0858 54.9595 62.2893 54.0696 61.3068 54.0696Z" fill="#92E3A9"/>
<path d="M81.7441 14.3346H68.8198V14.9123H81.7441V14.3346Z" fill="#263238"/>
<path d="M81.7441 16.4281H68.8198V17.0058H81.7441V16.4281Z" fill="#263238"/>
<path d="M81.7441 18.5215H68.8198V19.0992H81.7441V18.5215Z" fill="#263238"/>
<path d="M81.7441 20.6121H68.8198V21.1898H81.7441V20.6121Z" fill="#263238"/>
<path d="M81.7441 22.7054H68.8198V23.2831H81.7441V22.7054Z" fill="#263238"/>
<path d="M81.7441 34.9857H68.8198V35.5634H81.7441V34.9857Z" fill="#263238"/>
<path d="M81.7441 37.0791H68.8198V37.6568H81.7441V37.0791Z" fill="#263238"/>
<path d="M81.7441 39.1726H68.8198V39.7503H81.7441V39.1726Z" fill="#263238"/>
<path d="M81.7441 41.266H68.8198V41.8437H81.7441V41.266Z" fill="#263238"/>
<path d="M81.7441 43.3594H68.8198V43.9371H81.7441V43.3594Z" fill="#263238"/>
<path d="M81.7441 55.1049H68.8198V55.6825H81.7441V55.1049Z" fill="#263238"/>
<path d="M81.7441 57.1982H68.8198V57.7759H81.7441V57.1982Z" fill="#263238"/>
<path d="M81.7441 59.2917H68.8198V59.8694H81.7441V59.2917Z" fill="#263238"/>
<path d="M81.7441 61.3851H68.8198V61.9628H81.7441V61.3851Z" fill="#263238"/>
<path d="M81.7441 63.4785H68.8198V64.0562H81.7441V63.4785Z" fill="#263238"/>
<path opacity="0.3" d="M81.7441 14.3346H68.8198V14.9123H81.7441V14.3346Z" fill="white"/>
<path opacity="0.3" d="M81.7441 16.4281H68.8198V17.0058H81.7441V16.4281Z" fill="white"/>
<path opacity="0.3" d="M81.7441 18.5215H68.8198V19.0992H81.7441V18.5215Z" fill="white"/>
<path opacity="0.3" d="M81.7441 20.6121H68.8198V21.1898H81.7441V20.6121Z" fill="white"/>
<path opacity="0.3" d="M81.7441 22.7054H68.8198V23.2831H81.7441V22.7054Z" fill="white"/>
<path opacity="0.3" d="M81.7441 34.9857H68.8198V35.5634H81.7441V34.9857Z" fill="white"/>
<path opacity="0.3" d="M81.7441 37.0791H68.8198V37.6568H81.7441V37.0791Z" fill="white"/>
<path opacity="0.3" d="M81.7441 39.1726H68.8198V39.7503H81.7441V39.1726Z" fill="white"/>
<path opacity="0.3" d="M81.7441 41.266H68.8198V41.8437H81.7441V41.266Z" fill="white"/>
<path opacity="0.3" d="M81.7441 43.3594H68.8198V43.9371H81.7441V43.3594Z" fill="white"/>
<path opacity="0.3" d="M81.7441 55.1049H68.8198V55.6825H81.7441V55.1049Z" fill="white"/>
<path opacity="0.3" d="M81.7441 57.1982H68.8198V57.7759H81.7441V57.1982Z" fill="white"/>
<path opacity="0.3" d="M81.7441 59.2917H68.8198V59.8694H81.7441V59.2917Z" fill="white"/>
<path opacity="0.3" d="M81.7441 61.3851H68.8198V61.9628H81.7441V61.3851Z" fill="white"/>
<path opacity="0.3" d="M81.7441 63.4785H68.8198V64.0562H81.7441V63.4785Z" fill="white"/>
<path d="M62.1259 56.4719H23.2864V57.0496H62.1259V56.4719Z" fill="white"/>
<path d="M62.1259 58.6426H23.2864V59.2203H62.1259V58.6426Z" fill="white"/>
<path d="M62.1259 60.816H23.2864V61.3937H62.1259V60.816Z" fill="white"/>
<path d="M26.138 40.9915L23.0944 44.1659C22.7212 43.7191 22.4304 43.1944 22.2387 42.622C22.047 42.0496 21.9581 41.4405 21.9771 40.8297C21.9961 40.2189 22.1227 39.6182 22.3495 39.062C22.5764 38.5059 22.8991 38.0051 23.2992 37.5883C24.0623 36.7702 25.0832 36.3212 26.1406 36.3385L26.138 40.9915Z" fill="#263238"/>
<path d="M26.1381 40.9914L29.883 38.9609C30.3108 39.9621 30.4046 41.101 30.1474 42.1726C29.8903 43.2442 29.2991 44.1779 28.4803 44.8057C27.6616 45.4334 26.6691 45.7139 25.6817 45.5966C24.6943 45.4793 23.7768 44.9719 23.0945 44.1659L26.1381 40.9914Z" fill="#92E3A9"/>
<path d="M26.1381 40.9914V36.3356C26.9233 36.3184 27.6959 36.5577 28.3611 37.0241C29.0263 37.4904 29.5553 38.1636 29.883 38.9609L26.1381 40.9914Z" fill="#263238"/>
<path opacity="0.3" d="M26.138 40.9915L23.0944 44.1659C22.7212 43.7191 22.4304 43.1944 22.2387 42.622C22.047 42.0496 21.9581 41.4405 21.9771 40.8297C21.9961 40.2189 22.1227 39.6182 22.3495 39.062C22.5764 38.5059 22.8991 38.0051 23.2992 37.5883C24.0623 36.7702 25.0832 36.3212 26.1406 36.3385L26.138 40.9915Z" fill="white"/>
</svg>
