<svg width="92" height="95" viewBox="0 0 92 95" fill="none" xmlns="http://www.w3.org/2000/svg">
<g clip-path="url(#clip0_338_79)">
<path d="M82.0398 33.7301C81.4481 30.4701 80.6917 27.2451 79.7737 24.0684C77.0137 14.8741 71.5203 5.57121 62.0855 2.44328C55.1201 0.1365 47.6028 1.72825 41.7172 6.43025C32.4857 13.8029 25.7673 23.8638 15.6667 30.2485C7.23413 35.5821 2.82055 44.1978 5.65561 56.376C8.49066 68.5542 17.9618 75.6489 28.3263 74.7873C36.9405 74.0622 45.9468 74.8378 53.3939 79.2013C60.0494 83.0998 71.8084 79.7066 81.5362 69.057C87.2039 62.8491 86.6543 54.956 84.8071 47.5809C83.6643 43.0128 82.9235 38.3538 82.0398 33.7301Z" fill="#92E3A9"/>
<path opacity="0.7" d="M82.0398 33.7301C81.4481 30.4701 80.6917 27.2451 79.7737 24.0684C77.0137 14.8741 71.5203 5.57121 62.0855 2.44328C55.1201 0.1365 47.6028 1.72825 41.7172 6.43025C32.4857 13.8029 25.7673 23.8638 15.6667 30.2485C7.23413 35.5821 2.82055 44.1978 5.65561 56.376C8.49066 68.5542 17.9618 75.6489 28.3263 74.7873C36.9405 74.0622 45.9468 74.8378 53.3939 79.2013C60.0494 83.0998 71.8084 79.7066 81.5362 69.057C87.2039 62.8491 86.6543 54.956 84.8071 47.5809C83.6643 43.0128 82.9235 38.3538 82.0398 33.7301Z" fill="white"/>
<path d="M91.8572 90.3208C91.8572 91.1091 71.2782 91.7509 45.9007 91.7509C20.5233 91.7509 -0.0581055 91.1091 -0.0581055 90.3208C-0.0581055 89.5325 20.5208 88.8907 45.9007 88.8907C71.2806 88.8907 91.8572 89.5325 91.8572 90.3208Z" fill="#92E3A9"/>
<path opacity="0.3" d="M91.8572 90.3208C91.8572 91.1091 71.2782 91.7509 45.9007 91.7509C20.5233 91.7509 -0.0581055 91.1091 -0.0581055 90.3208C-0.0581055 89.5325 20.5208 88.8907 45.9007 88.8907C71.2806 88.8907 91.8572 89.5325 91.8572 90.3208Z" fill="white"/>
<path d="M64.4557 14.0226H27.0746C26.1721 14.0226 25.4404 14.7861 25.4404 15.728V88.7694C25.4404 89.7113 26.1721 90.4748 27.0746 90.4748H64.4557C65.3582 90.4748 66.0899 89.7113 66.0899 88.7694V15.728C66.0899 14.7861 65.3582 14.0226 64.4557 14.0226Z" fill="#263238" stroke="#263238" stroke-miterlimit="10"/>
<path d="M48.576 18.5906H43.516C43.4477 18.5906 43.38 18.5766 43.3168 18.5493C43.2537 18.522 43.1963 18.482 43.1479 18.4315C43.0996 18.3811 43.0613 18.3212 43.0351 18.2553C43.0089 18.1894 42.9955 18.1187 42.9955 18.0474C42.9955 17.9762 43.009 17.9057 43.0352 17.8399C43.0613 17.7741 43.0997 17.7144 43.1481 17.6642C43.1965 17.6139 43.2539 17.5742 43.317 17.5472C43.3801 17.5201 43.4478 17.5064 43.516 17.5067H48.576C48.7134 17.5067 48.8452 17.5637 48.9424 17.6651C49.0395 17.7665 49.0941 17.904 49.0941 18.0474C49.0944 18.1186 49.0813 18.1892 49.0554 18.2551C49.0295 18.321 48.9914 18.3809 48.9432 18.4314C48.8951 18.4818 48.8379 18.5219 48.7748 18.5492C48.7118 18.5766 48.6443 18.5906 48.576 18.5906Z" fill="#92E3A9"/>
<path d="M63.5212 83.6429H28.0092V18.6538H36.4272L37.3738 19.4724C37.7037 19.7603 38.1203 19.9178 38.5504 19.9171H53.4012C53.8469 19.9145 54.2768 19.7441 54.6117 19.4371L55.4663 18.6538H63.5139L63.5212 83.6429Z" fill="white" stroke="#263238" stroke-width="0.938618" stroke-linecap="round" stroke-linejoin="round"/>
<path d="M42.1917 23.4442L41.7075 21.7463H29.6216V23.4442V80.1915V81.8919H62.0177V23.4442H42.1917Z" fill="#92E3A9"/>
<path d="M60.8774 26.5039H30.7595V80.0223H60.8774V26.5039Z" fill="white"/>
<path d="M46.9006 85.6516C46.9011 85.4846 46.854 85.3212 46.7655 85.1821C46.6769 85.043 46.5508 84.9344 46.4031 84.8701C46.2554 84.8059 46.0927 84.7888 45.9357 84.8211C45.7787 84.8534 45.6344 84.9335 45.521 85.0515C45.4077 85.1694 45.3304 85.3197 45.299 85.4835C45.2676 85.6473 45.2835 85.8171 45.3446 85.9714C45.4058 86.1258 45.5094 86.2577 45.6424 86.3505C45.7755 86.4434 45.9319 86.4929 46.092 86.4929C46.3058 86.4923 46.5107 86.4035 46.6622 86.2459C46.8136 86.0884 46.8993 85.8748 46.9006 85.6516Z" fill="#92E3A9"/>
<path d="M43.5571 77.6852C49.0339 77.6852 53.4738 71.0926 53.4738 62.9602C53.4738 54.8278 49.0339 48.2352 43.5571 48.2352C38.0803 48.2352 33.6405 54.8278 33.6405 62.9602C33.6405 71.0926 38.0803 77.6852 43.5571 77.6852Z" fill="#92E3A9"/>
<path opacity="0.5" d="M43.5571 77.6852C49.0339 77.6852 53.4738 71.0926 53.4738 62.9602C53.4738 54.8278 49.0339 48.2352 43.5571 48.2352C38.0803 48.2352 33.6405 54.8278 33.6405 62.9602C33.6405 71.0926 38.0803 77.6852 43.5571 77.6852Z" fill="white"/>
<path d="M44.9637 46.5247C44.9637 46.5247 44.344 45.4433 43.775 45.3902C43.2061 45.3372 36.432 49.7739 35.3957 52.0832C34.3595 54.3925 33.379 59.0263 36.1221 63.4857C38.7973 67.8239 42.9906 67.6799 45.1647 67.4626C47.3388 67.2453 48.7963 66.5075 50.9994 64.6631C53.2026 62.8187 55.2242 60.1026 55.5171 58.2582C55.8101 56.4138 54.7327 55.388 54.0451 55.1328C53.3575 54.8776 49.3797 54.9281 46.4817 51.8482C43.5837 48.7683 44.9637 46.5247 44.9637 46.5247Z" fill="#263238" stroke="#263238" stroke-linecap="round" stroke-linejoin="round"/>
<path d="M45.8426 45.1199C45.8426 45.1199 44.0849 45.8223 42.9978 47.0628C41.9108 48.3034 41.2402 50.2489 41.1893 53.109C41.1385 55.9691 42.0173 59.2056 45.4286 60.6104C48.8398 62.0152 51.8928 60.9338 52.8757 59.9611C53.8587 58.9884 55.0547 56.2394 55.0547 56.2394C55.0547 56.2394 49.6267 57.7554 47.041 54.5643C44.4553 51.3732 45.8426 45.1199 45.8426 45.1199Z" fill="white" stroke="#263238" stroke-linecap="round" stroke-linejoin="round"/>
<path d="M76.222 47.1134C74.8952 45.0366 71.7285 44.4226 69.2251 43.5762C66.7218 42.7298 65.2474 41.0496 65.9107 36.8908C66.5741 32.732 70.0265 25.9759 69.9611 24.7455C69.8958 23.515 58.0302 23.5933 56.9238 23.9875C55.8174 24.3816 55.5995 24.2932 54.5681 25.6778C53.9965 26.4255 53.4794 27.2169 53.021 28.0452L54.2994 25.2407H54.3938C54.5327 24.8721 54.7299 24.5304 54.9772 24.23C56.1022 22.8681 56.7396 21.1412 56.7809 19.3436C56.8294 16.6983 55.0257 16.9534 54.6843 17.767C54.3429 18.5806 52.3456 21.38 51.7597 22.1431C51.1738 22.9061 49.956 24.9931 49.956 24.9931L48.6026 29.8896C48.6026 29.8896 48.3072 31.35 46.6125 36.8858C44.9178 42.4215 45.6562 44.9734 45.6562 44.9734C45.6562 44.9734 45.2131 44.7435 44.1818 48.0483C43.1504 51.353 43.5935 55.58 45.4335 57.5786C47.2735 59.5771 49.7066 59.5013 52.4327 58.3492C54.1097 57.5994 55.5063 56.2989 56.4105 54.6452C56.4105 54.6452 59.2843 53.8872 61.4197 52.1868C63.555 50.4864 65.1747 48.7279 68.2737 48.882C71.3726 49.0362 74.9025 50.8806 76.0816 50.8023C77.2606 50.7239 77.5487 49.1878 76.222 47.1134Z" fill="white"/>
<mask id="mask0_338_79" style="mask-type:luminance" maskUnits="userSpaceOnUse" x="43" y="17" width="35" height="43">
<path d="M76.222 47.1134C74.8952 45.0366 71.7285 44.4226 69.2251 43.5762C66.7218 42.7298 65.2474 41.0496 65.9107 36.8908C66.5741 32.732 70.0265 25.9759 69.9611 24.7455C69.8958 23.515 58.0302 23.5933 56.9238 23.9875C55.8174 24.3816 55.5995 24.2932 54.5681 25.6778C53.9965 26.4255 53.4794 27.2169 53.021 28.0452L54.2994 25.2407H54.3938C54.5327 24.8721 54.7299 24.5304 54.9772 24.23C56.1022 22.8681 56.7396 21.1412 56.7809 19.3436C56.8294 16.6983 55.0257 16.9534 54.6843 17.767C54.3429 18.5806 52.3456 21.38 51.7597 22.1431C51.1738 22.9061 49.956 24.9931 49.956 24.9931L48.6026 29.8896C48.6026 29.8896 48.3072 31.35 46.6125 36.8858C44.9178 42.4215 45.6562 44.9734 45.6562 44.9734C45.6562 44.9734 45.2131 44.7435 44.1818 48.0483C43.1504 51.353 43.5935 55.58 45.4335 57.5786C47.2735 59.5771 49.7066 59.5013 52.4327 58.3492C54.1097 57.5994 55.5063 56.2989 56.4105 54.6452C56.4105 54.6452 59.2843 53.8872 61.4197 52.1868C63.555 50.4864 65.1747 48.7279 68.2737 48.882C71.3726 49.0362 74.9025 50.8806 76.0816 50.8023C77.2606 50.7239 77.5487 49.1878 76.222 47.1134Z" fill="white"/>
</mask>
<g mask="url(#mask0_338_79)">
<path d="M57.224 39.9202C49.0287 41.1961 46.4527 43.2376 47.271 46.0472C47.4408 46.6043 47.7167 47.1199 48.0821 47.5631C48.0821 47.6162 48.0821 47.6743 48.0966 47.7349C48.0966 47.7349 48.2419 47.8259 48.4598 47.9876C48.7467 48.2768 49.0569 48.5397 49.387 48.7734C49.9245 49.3065 50.4063 49.9735 50.307 50.5925C50.0964 51.9114 47.1597 54.2157 45.6755 54.3268C44.1914 54.438 43.6758 52.8993 43.4651 54.5467C43.2545 56.194 46.5181 60.2568 49.6751 59.8171C52.8322 59.3775 55.4639 54.7639 55.4639 54.7639C55.4639 54.7639 55.0426 54.006 57.1586 51.6891C58.5483 50.1731 60.536 49.5036 62.0588 48.882C63.4965 48.4407 64.898 47.8797 66.2497 47.2044C69.995 45.2892 74.4449 46.5677 74.4449 46.5677C74.4449 46.5677 65.4192 38.6291 57.224 39.9202Z" fill="#92E3A9"/>
<path opacity="0.5" d="M57.224 39.9202C49.0287 41.1961 46.4527 43.2376 47.271 46.0472C47.4408 46.6043 47.7167 47.1199 48.0821 47.5631C48.0821 47.6162 48.0821 47.6743 48.0966 47.7349C48.0966 47.7349 48.2419 47.8259 48.4598 47.9876C48.7467 48.2768 49.0569 48.5397 49.387 48.7734C49.9245 49.3065 50.4063 49.9735 50.307 50.5925C50.0964 51.9114 47.1597 54.2157 45.6755 54.3268C44.1914 54.438 43.6758 52.8993 43.4651 54.5467C43.2545 56.194 46.5181 60.2568 49.6751 59.8171C52.8322 59.3775 55.4639 54.7639 55.4639 54.7639C55.4639 54.7639 55.0426 54.006 57.1586 51.6891C58.5483 50.1731 60.536 49.5036 62.0588 48.882C63.4965 48.4407 64.898 47.8797 66.2497 47.2044C69.995 45.2892 74.4449 46.5677 74.4449 46.5677C74.4449 46.5677 65.4192 38.6291 57.224 39.9202Z" fill="white"/>
</g>
<path d="M76.222 47.1134C74.8952 45.0366 71.7285 44.4226 69.2251 43.5762C66.7218 42.7298 65.2474 41.0496 65.9107 36.8908C66.5741 32.732 70.0265 25.9759 69.9611 24.7455C69.8958 23.515 58.0302 23.5933 56.9238 23.9875C55.8174 24.3816 55.5995 24.2932 54.5681 25.6778C53.9965 26.4255 53.4794 27.2169 53.021 28.0452L54.2994 25.2407H54.3938C54.5327 24.8721 54.7299 24.5304 54.9772 24.23C56.1022 22.8681 56.7396 21.1412 56.7809 19.3436C56.8294 16.6983 55.0257 16.9534 54.6843 17.767C54.3429 18.5806 52.3456 21.38 51.7597 22.1431C51.1738 22.9061 49.956 24.9931 49.956 24.9931L48.6026 29.8896C48.6026 29.8896 48.3072 31.35 46.6125 36.8858C44.9178 42.4215 45.6562 44.9734 45.6562 44.9734C45.6562 44.9734 45.2131 44.7435 44.1818 48.0483C43.1504 51.353 43.5935 55.58 45.4335 57.5786C47.2735 59.5771 49.7066 59.5013 52.4327 58.3492C54.1097 57.5994 55.5063 56.2989 56.4105 54.6452C56.4105 54.6452 59.2843 53.8872 61.4197 52.1868C63.555 50.4864 65.1747 48.7279 68.2737 48.882C71.3726 49.0362 74.9025 50.8806 76.0816 50.8023C77.2606 50.7239 77.5487 49.1878 76.222 47.1134Z" stroke="#263238" stroke-linecap="round" stroke-linejoin="round"/>
<path d="M76.2631 50.7845C76.2631 50.7845 76.4181 50.1377 74.6604 49.2686C72.9027 48.3994 72.1788 48.9982 72.1788 49.4303C72.1788 49.8623 75.992 50.7845 76.2631 50.7845Z" fill="white" stroke="#263238" stroke-linecap="round" stroke-linejoin="round"/>
<path d="M59.6087 21.1804L55.1733 24.7429H61.1219C61.1219 24.7429 61.1219 20.3669 59.6087 21.1804Z" fill="white" stroke="#263238" stroke-linecap="round" stroke-linejoin="round"/>
<path d="M54.0452 46.8759C54.6751 46.1329 55.4604 45.5511 56.3403 45.1755" stroke="#263238" stroke-linecap="round" stroke-linejoin="round"/>
<path d="M53.2389 48.258C53.3069 48.0527 53.3953 47.8554 53.5028 47.6693" stroke="#263238" stroke-linecap="round" stroke-linejoin="round"/>
<path d="M51.4716 53.0584C51.2344 52.8406 51.0126 52.605 50.8082 52.3535" stroke="#263238" stroke-linecap="round" stroke-linejoin="round"/>
<path d="M56.4105 54.6452C55.0426 54.8076 53.6607 54.512 52.4642 53.8013" stroke="#263238" stroke-linecap="round" stroke-linejoin="round"/>
<path d="M72.9947 24.4373H50.6436C47.5567 24.4373 45.0558 26.931 45.0558 29.9958V40.9865C45.0558 43.6596 46.9466 45.8931 49.4694 46.4313L48.2903 50.0721L53.7474 46.5652H72.9947C76.0792 46.5652 78.5825 44.0714 78.5825 41.0067V30.016C78.5825 26.931 76.0792 24.4373 72.9947 24.4373Z" fill="#92E3A9" stroke="#263238" stroke-width="2" stroke-miterlimit="10"/>
<path d="M48.6946 31.8376H73.8203" stroke="#263238" stroke-width="2.06409" stroke-miterlimit="10" stroke-linecap="round"/>
<path d="M48.6946 34.5386H73.8203" stroke="#263238" stroke-width="2.06409" stroke-miterlimit="10" stroke-linecap="round"/>
<path d="M48.6946 37.2369H73.8203" stroke="#263238" stroke-width="2.06409" stroke-miterlimit="10" stroke-linecap="round"/>
<path d="M48.6946 39.9353H73.8203" stroke="#263238" stroke-width="2.06409" stroke-miterlimit="10" stroke-linecap="round"/>
<path d="M78.3791 34.0711C80.0999 34.0711 81.495 32.6808 81.495 30.9659C81.495 29.251 80.0999 27.8607 78.3791 27.8607C76.6582 27.8607 75.2632 29.251 75.2632 30.9659C75.2632 32.6808 76.6582 34.0711 78.3791 34.0711Z" fill="#263238"/>
<path d="M78.137 33.1591C78.0346 32.9456 77.9886 32.7075 78.0038 32.4693V29.9427L77.4567 30.2611C77.3978 30.2966 77.3311 30.3158 77.263 30.3167C77.212 30.3172 77.1614 30.3065 77.1147 30.2851C77.068 30.2638 77.0261 30.2323 76.9919 30.1929C76.9206 30.1156 76.8814 30.0121 76.8829 29.9048C76.8813 29.8319 76.9016 29.7604 76.941 29.7002C76.9975 29.6296 77.0646 29.5691 77.1395 29.5208L78.2 28.9548C78.3184 28.8662 78.4569 28.8113 78.6019 28.7957C78.9626 28.7957 79.1417 29.0786 79.1417 29.6446V32.5578C79.1417 33.1111 78.9529 33.3865 78.5728 33.3865C78.4871 33.3944 78.401 33.3773 78.3241 33.3371C78.2471 33.297 78.1824 33.2354 78.137 33.1591Z" fill="white"/>
<path d="M66.424 22.8101C66.424 22.8101 66.5233 24.844 68.2786 25.8117C70.0338 26.7794 72.2757 26.5697 72.3241 25.3544C72.3726 24.1391 71.0071 22.8606 70.0822 21.231C69.1574 19.6013 67.1068 20.521 66.2303 21.6403" fill="white"/>
<path d="M66.424 22.8101C66.424 22.8101 66.5233 24.844 68.2786 25.8117C70.0338 26.7794 72.2757 26.5697 72.3241 25.3544C72.3726 24.1391 71.0071 22.8606 70.0822 21.231C69.1574 19.6013 67.1068 20.521 66.2303 21.6403" stroke="#263238" stroke-linecap="round" stroke-linejoin="round"/>
<path d="M69.4479 24.4372C69.3002 25.2507 69.8376 25.7005 70.3243 25.9531C70.8109 26.2058 71.7769 26.0567 72.3241 25.3442C72.3483 24.748 72.036 24.1416 71.5978 23.4872C70.9877 23.568 69.5616 23.8005 69.4479 24.4372Z" fill="white" stroke="#263238" stroke-linecap="round" stroke-linejoin="round"/>
<path d="M62.7682 22.8101C62.7682 22.8101 62.8651 24.844 64.6204 25.8117C66.3756 26.7794 68.6199 26.5697 68.6684 25.3544C68.7168 24.1391 67.3513 22.8606 66.424 21.231C65.4968 19.6013 63.451 20.521 62.5721 21.6403" fill="white"/>
<path d="M62.7682 22.8101C62.7682 22.8101 62.8651 24.844 64.6204 25.8117C66.3756 26.7794 68.6199 26.5697 68.6684 25.3544C68.7168 24.1391 67.3513 22.8606 66.424 21.231C65.4968 19.6013 63.451 20.521 62.5721 21.6403" stroke="#263238" stroke-linecap="round" stroke-linejoin="round"/>
<path d="M65.7921 24.4372C65.6444 25.2507 66.1819 25.7005 66.6685 25.9531C67.1552 26.2058 68.1212 26.0567 68.6683 25.3442C68.6901 24.748 68.3778 24.1416 67.942 23.4872C67.3319 23.568 65.9059 23.8005 65.7921 24.4372Z" fill="white" stroke="#263238" stroke-linecap="round" stroke-linejoin="round"/>
<path d="M59.3666 22.8101C59.3666 22.8101 59.4635 24.844 61.2187 25.8117C62.974 26.7794 65.2159 26.5697 65.2643 25.3544C65.3127 24.1391 63.9497 22.8606 63.0224 21.231C62.0952 19.6013 60.047 20.521 59.1705 21.6403" fill="white"/>
<path d="M59.3666 22.8101C59.3666 22.8101 59.4635 24.844 61.2187 25.8117C62.974 26.7794 65.2159 26.5697 65.2643 25.3544C65.3127 24.1391 63.9497 22.8606 63.0224 21.231C62.0952 19.6013 60.047 20.521 59.1705 21.6403" stroke="#263238" stroke-linecap="round" stroke-linejoin="round"/>
<path d="M62.3881 24.4372C62.2429 25.2507 62.7779 25.7005 63.267 25.9531C63.756 26.2058 64.7196 26.0567 65.2643 25.3442C65.2885 24.748 64.9762 24.1416 64.538 23.4872C63.9279 23.568 62.5019 23.8005 62.3881 24.4372Z" fill="white" stroke="#263238" stroke-linecap="round" stroke-linejoin="round"/>
<path d="M45.6561 44.9734C45.6561 44.9734 45.7917 48.1013 47.4453 50.206" stroke="#263238" stroke-linecap="round" stroke-linejoin="round"/>
<path d="M40.8431 58.0284C40.8431 58.6651 40.4364 59.1805 39.9352 59.1805C39.4341 59.1805 39.0273 58.6752 39.0273 58.0284C39.0273 57.3815 39.4341 56.8762 39.9352 56.8762C40.4364 56.8762 40.8431 57.3917 40.8431 58.0284Z" fill="white"/>
<path d="M38.5843 59.4634C38.5843 60.1001 38.1776 60.6155 37.6764 60.6155C37.1753 60.6155 36.7686 60.1102 36.7686 59.4634C36.7686 58.8166 37.1753 58.3087 37.6764 58.3087C38.1776 58.3087 38.5843 58.8267 38.5843 59.4634Z" stroke="#263238" stroke-linecap="round" stroke-linejoin="round"/>
</g>
<defs>
<clipPath id="clip0_338_79">
<rect width="92" height="95" fill="white"/>
</clipPath>
</defs>
</svg>
